<?xml version="1.0" encoding="UTF-8" standalone="no"?>
<svg
   xmlns:dc="http://purl.org/dc/elements/1.1/"
   xmlns:cc="http://creativecommons.org/ns#"
   xmlns:rdf="http://www.w3.org/1999/02/22-rdf-syntax-ns#"
   xmlns:svg="http://www.w3.org/2000/svg"
   xmlns="http://www.w3.org/2000/svg"
   xmlns:xlink="http://www.w3.org/1999/xlink"
   id="svg3753"
   version="1.1"
   viewBox="0 0 105.83333 105.83335"
   height="400"
   width="400">
  <defs
     id="defs3747">
    <path
       id="SVGID_1_"
       d="M1253.742,438.704c-83.846,111.57-399.787,198.39-795.846,216.895    c-51.491,2.406-104.317,3.677-158.184,3.677c-138.467,0-270.166-8.282-389.486-23.187c28.508,5.175,516.126,91.633,935.405,32.311    c119.15-16.858,232.711-45.521,328.681-91.151c33.918-16.127,65.713-34.3,94.688-54.903v-94.06    C1264.016,431.829,1258.886,435.272,1253.742,438.704" />
    <rect
       id="SVGID_4_"
       x="-650"
       y="-252"
       width="1920"
       height="1080" />
    <path
       id="SVGID_6_"
       d="M482.665,50.624c-8.701,15.503-10.025,31.285-2.965,35.25c7.066,3.965,19.846-5.385,28.547-20.889    c8.703-15.505,10.029-31.284,2.963-35.25c-1.098-0.616-2.334-0.911-3.671-0.911C500.271,28.824,490.012,37.53,482.665,50.624" />
    <path
       id="SVGID_9_"
       d="M472.845,61.85c-1.422,12.951,2.203,23.978,8.107,24.628c5.897,0.654,11.845-9.321,13.272-22.274    c1.427-12.949-2.201-23.981-8.106-24.628c-0.185-0.021-0.367-0.031-0.55-0.031C479.855,39.546,474.234,49.296,472.845,61.85" />
    <rect
       id="SVGID_12_"
       x="-650"
       y="-252"
       width="1920"
       height="1080" />
  </defs>
  <metadata
     id="metadata3750">
    <rdf:RDF>
      <cc:Work
         rdf:about="">
        <dc:format>image/svg+xml</dc:format>
        <dc:type
           rdf:resource="http://purl.org/dc/dcmitype/StillImage" />
        <dc:title></dc:title>
      </cc:Work>
    </rdf:RDF>
  </metadata>
  <g
     transform="translate(0,-191.16653)"
     id="layer1">
    <g
       transform="matrix(0.17043397,0,0,0.18363533,1.3012856,216.81193)"
       id="g4243">
      <g
         id="g4102">
	<defs
   id="defs4090">
		<path
   id="path4188"
   d="m 1253.742,438.704 c -83.846,111.57 -399.787,198.39 -795.846,216.895 -51.491,2.406 -104.317,3.677 -158.184,3.677 -138.467,0 -270.166,-8.282 -389.486,-23.187 28.508,5.175 516.126,91.633 935.405,32.311 119.15,-16.858 232.711,-45.521 328.681,-91.151 33.918,-16.127 65.713,-34.3 94.688,-54.903 v -94.06 c -4.984,3.543 -10.114,6.986 -15.258,10.418" />

	</defs>

	<clipPath
   id="SVGID_2_">
		<use
   height="100%"
   width="100%"
   y="0"
   x="0"
   style="overflow:visible"
   xlink:href="#SVGID_1_"
   overflow="visible"
   id="use4092" />

	</clipPath>

	
		<linearGradient
   id="SVGID_3_"
   gradientUnits="userSpaceOnUse"
   x1="-861.49707"
   y1="697.81348"
   x2="-860.49707"
   y2="697.81348"
   gradientTransform="matrix(0,260.8228,260.8228,0,-181415.98,225126.48)">
		<stop
   offset="0"
   style="stop-color:#33A02C"
   id="stop4095" />

		<stop
   offset="1"
   style="stop-color:#99CF16"
   id="stop4097" />

	</linearGradient>

	
</g>
      <g
         id="g4130">
	<defs
   id="defs4105">
		<rect
   id="rect4198"
   x="-650"
   y="-252"
   width="1920"
   height="1080" />

	</defs>

	<clipPath
   id="SVGID_5_">
		<use
   height="100%"
   width="100%"
   y="0"
   x="0"
   style="overflow:visible"
   xlink:href="#SVGID_4_"
   overflow="visible"
   id="use4107" />

	</clipPath>

	
	
	
	
	<path
   style="fill:#171052"
   clip-path="url(#SVGID_5_)"
   d="m 312.595,145.43 c -0.739,2.785 -1.797,6.18 -3.177,10.186 -1.385,4.005 -3.108,7.959 -5.178,11.858 -2.071,3.902 -4.468,7.304 -7.188,10.214 -2.729,2.913 -5.803,4.61 -9.23,5.103 -2.121,0.305 -4.322,0.233 -6.593,-0.215 -2.28,-0.447 -4.421,-1.354 -6.415,-2.713 -1.998,-1.361 -3.808,-3.24 -5.437,-5.63 -1.628,-2.396 -2.896,-5.323 -3.804,-8.8 -0.737,-2.986 -1.239,-5.949 -1.506,-8.894 -0.265,-2.949 -0.399,-6.071 -0.41,-9.365 -0.008,-3.293 0.123,-6.888 0.395,-10.787 0.259,-3.899 0.611,-8.298 1.042,-13.201 0.219,-2.085 0.298,-4.028 0.25,-5.825 -0.052,-1.791 -0.256,-3.23 -0.62,-4.31 l -4.254,6.938 c -2.624,3.978 -4.898,7.881 -6.823,11.709 -1.923,3.825 -3.788,8.032 -5.61,12.615 -0.516,6.459 -0.61,13.007 -0.275,19.648 0.332,6.648 1.223,13.26 2.682,19.846 0.155,1.108 -0.656,1.738 -2.435,1.895 -1.78,0.148 -3.818,-0.052 -6.106,-0.596 -2.291,-0.547 -4.49,-1.338 -6.592,-2.379 -2.102,-1.036 -3.402,-2.189 -3.895,-3.459 -1.153,-4.469 -1.979,-8.854 -2.494,-13.152 -0.51,-4.304 -0.842,-8.579 -0.986,-12.831 -0.142,-4.25 -0.154,-8.474 -0.033,-12.658 0.127,-4.188 0.295,-8.408 0.51,-12.66 0.119,-4.959 0.244,-9.788 0.397,-14.496 0.151,-4.705 0.175,-9.212 0.077,-13.522 0.919,-0.75 2.382,-0.982 4.376,-0.7 1.99,0.278 4.087,0.88 6.281,1.803 2.188,0.922 4.319,2.137 6.387,3.643 2.065,1.507 3.692,3.153 4.874,4.94 2.607,-4.08 5.573,-7.642 8.895,-10.694 3.326,-3.044 7.082,-5.023 11.274,-5.932 1.415,-0.203 3.121,0.2 5.113,1.198 1.995,1.004 3.903,2.298 5.728,3.891 1.825,1.595 3.391,3.376 4.705,5.349 1.311,1.977 1.983,3.787 2.008,5.43 -0.272,5.288 -0.593,10.249 -0.959,14.883 -0.369,4.633 -0.725,8.62 -1.068,11.966 -0.305,2.929 -0.565,5.617 -0.78,8.064 -0.217,2.45 -0.337,4.862 -0.353,7.23 -0.025,2.376 0.086,4.777 0.334,7.211 0.246,2.434 1.145,7.296 2.438,7.339 2.867,0.097 6.817,-4.681 8.746,-8.746 2.217,-4.668 4.337,-10.899 5.433,-18.805 0.252,-1.802 0.851,-1.432 1.295,-3.041 0.435,-1.606 0.852,-3.209 1.237,-4.808 l 0.888,-4.606 c 0.234,-0.547 0.916,-0.773 2.065,-0.68 1.146,0.097 2.374,0.407 3.687,0.94 1.31,0.533 2.465,1.221 3.457,2.056 0.992,0.835 1.393,1.626 1.189,2.374 l -0.041,-0.303 -3.522,15.329 z"
   id="path4118" />

	<path
   style="fill:#171052"
   clip-path="url(#SVGID_5_)"
   d="m 206.334,161.592 c -5.51,6.803 -12.09,12.425 -20.162,16.526 0.977,2.644 2.14,5.288 4.172,7.293 4.727,4.655 10.452,2.897 12.941,2.064 14.936,-4.994 19.05,-22.819 21.123,-27.882 1.023,-2.489 1.777,-4.824 2.382,-7.531 0.599,-2.705 1.144,-5.275 1.632,-7.709 0.521,-1.409 -0.85,-2.118 0.496,-2.409 1.354,-0.289 2.656,-0.138 3.925,0.461 1.263,0.597 2.317,1.529 3.168,2.804 0.841,1.268 1.081,2.804 0.713,4.609 l -1.215,5.72 c -1.187,4.796 -2.76,10.13 -4.722,16.011 -1.965,5.879 -4.709,11.687 -8.236,17.424 -2.13,3.177 -4.45,5.734 -6.958,7.677 -2.507,1.94 -4.974,3.468 -7.394,4.575 -2.42,1.107 -4.654,1.88 -6.703,2.316 -2.045,0.441 -3.676,0.743 -4.887,0.912 -7.875,1.092 -14.623,-0.289 -20.248,-4.138 -5.627,-3.849 -9.746,-9.61 -12.352,-17.272 -2.264,-6.684 -3.17,-13.398 -2.718,-20.148 0.454,-6.751 2.067,-14.227 4.841,-22.43 0.962,-2.706 2.453,-5.667 4.479,-8.878 2.024,-3.213 4.461,-6.25 7.308,-9.114 2.839,-2.864 6.024,-5.314 9.551,-7.346 3.524,-2.032 7.312,-3.274 11.364,-3.737 4.25,-0.486 8.054,0.405 11.404,2.665 3.346,2.264 6.529,6.418 7.14,11.015 1.696,12.839 -2.988,26.567 -11.044,36.522 m -2.678,-35.436 c -3.354,0.734 -6.039,3.205 -8.412,6.104 -2.373,2.903 -4.361,6.211 -5.954,9.928 -1.591,3.725 -2.777,7.62 -3.55,11.684 -0.773,4.071 -1.228,7.864 -1.355,11.375 5.75,-3.776 10.775,-8.341 14.4,-14.112 6.651,-10.577 7.646,-19.022 7.727,-21.675 0.041,-1.324 -0.327,-3.856 -2.856,-3.304"
   id="path4120" />

	<path
   style="fill:#171052"
   clip-path="url(#SVGID_5_)"
   d="m 347.477,133.966 c -5.51,6.806 -12.089,12.426 -20.16,16.528 0.977,2.643 2.138,5.289 4.173,7.293 4.726,4.657 10.45,2.899 12.94,2.065 14.936,-4.995 21.094,-22.727 23.107,-27.818 0.787,-1.986 1.157,-2.947 1.492,-4.498 0.592,-2.705 2.031,-8.308 2.52,-10.739 0.521,-1.411 -0.851,-2.12 0.496,-2.411 1.353,-0.289 2.657,-0.136 3.926,0.461 1.264,0.597 2.316,1.531 3.167,2.804 0.841,1.27 1.081,2.804 0.715,4.609 l -1.217,5.722 c -1.184,4.794 -2.76,10.128 -4.721,16.009 -1.967,5.881 -10.24,28.805 -36.161,32.837 -7.852,1.223 -14.623,-0.287 -20.249,-4.138 -5.626,-3.848 -9.744,-9.608 -12.351,-17.27 -2.262,-6.686 -3.168,-13.399 -2.717,-20.151 0.453,-6.751 2.068,-14.228 4.842,-22.431 0.961,-2.703 2.453,-5.666 4.476,-8.877 2.025,-3.213 4.461,-6.25 7.307,-9.112 2.843,-2.868 6.026,-5.316 9.554,-7.347 3.522,-2.033 7.312,-3.275 11.363,-3.736 4.25,-0.488 8.052,0.401 11.404,2.664 3.345,2.262 6.529,6.417 7.138,11.014 1.699,12.843 -2.989,26.569 -11.044,36.522 m -2.679,-35.434 c -3.354,0.734 -6.036,3.205 -8.408,6.104 -2.376,2.903 -4.362,6.211 -5.957,9.93 -1.591,3.723 -2.777,7.618 -3.549,11.682 -0.772,4.073 -1.227,7.864 -1.354,11.377 5.75,-3.779 10.775,-8.341 14.399,-14.112 6.652,-10.579 7.646,-19.022 7.726,-21.675 0.04,-1.324 -0.328,-3.859 -2.857,-3.306"
   id="path4122" />

	<path
   style="fill:#171052"
   clip-path="url(#SVGID_5_)"
   d="m 371.061,60.508 c 1.653,-1.422 4.424,-1.783 8.313,-1.068 3.895,0.713 10.472,5.746 13.906,8.715 3.87,3.345 5.197,6.439 5.042,10.334 -0.065,1.758 -4.862,76.358 -4.8,82.336 0.019,1.921 0.892,3.92 3.246,3.325 1.912,-0.484 4.592,-3.541 4.948,-3.9 14.189,-14.179 29.061,-58.091 33.669,-73.564 11.445,-38.397 13.507,-61.747 13.982,-66.627 0.546,-5.684 0.17,-7.968 -0.431,-11.23 -0.417,-2.275 2.254,-4.744 4.717,-3.128 2.461,1.624 5.091,3.733 7.894,6.329 2.8,2.599 5.304,5.297 7.503,8.083 2.198,2.791 3.167,4.766 2.903,5.93 -1.49,5.725 -8.31,58.18 -31.716,110.588 -4.079,9.141 -7.93,17.753 -12.41,25.461 -4.482,7.72 -9.353,14.183 -14.62,19.404 -5.263,5.213 -10.852,8.295 -16.756,9.234 -4.634,0.865 -9.191,-0.207 -13.67,-3.209 -4.48,-3.002 -7.996,-7.947 -10.562,-14.826 -0.74,-2.262 -1.409,-4.779 -2.002,-7.543 -0.597,-2.773 -0.872,-5.761 -0.832,-8.969 -0.062,-4.621 -0.005,-10.115 0.169,-16.464 0.179,-6.352 0.425,-12.991 0.727,-19.931 0.206,-5.792 0.675,-37.308 0.461,-42.306 -0.213,-5 -0.632,-11.245 -0.932,-13.381 -0.3,-2.138 1.251,-3.593 1.251,-3.593"
   id="path4124" />

	<path
   style="fill:#171052"
   clip-path="url(#SVGID_5_)"
   d="m 563.104,116.473 c -0.023,0.609 -0.33,1.109 -0.907,1.488 -0.579,0.384 -1.302,0.634 -2.175,0.748 -0.871,0.117 -1.814,0.101 -2.829,-0.044 -1.012,-0.144 -1.918,-0.388 -2.721,-0.731 1.588,0.991 3.219,2.157 4.896,3.502 1.678,1.351 3.12,2.762 4.335,4.242 1.205,1.485 2.163,3.027 2.856,4.637 0.699,1.615 0.961,3.126 0.803,4.549 -0.238,0.703 -0.478,1.484 -0.716,2.341 -0.244,0.856 -0.484,1.74 -0.723,2.647 -0.496,1.917 -1.02,3.988 -1.571,6.205 -0.555,2.221 -1.059,4.389 -1.504,6.513 -0.452,2.122 -0.791,4.126 -1.025,6.002 -0.232,1.878 -0.693,5.394 0.599,5.61 5.595,0.938 11.68,-9.569 13.542,-12.497 1.864,-2.927 3.557,-6.066 5.074,-9.422 1.524,-3.349 5.824,-12.523 6.182,-13.732 0.327,-0.498 1.067,-0.588 2.23,-0.285 1.158,0.304 2.335,0.841 3.526,1.604 1.192,0.766 2.221,1.651 3.099,2.657 0.874,1.01 1.144,1.865 0.807,2.56 l -2.707,6.002 -0.008,0.155 c -2.603,5.908 -5.455,11.726 -8.556,17.456 -3.104,5.732 -6.899,10.847 -11.374,15.346 -0.75,0.786 -1.656,1.639 -2.711,2.559 -1.062,0.927 -2.323,1.791 -3.785,2.592 -1.467,0.803 -3.074,1.447 -4.828,1.935 -1.758,0.485 -3.698,0.63 -5.836,0.437 -4.969,-0.625 -8.865,-2.502 -11.689,-5.631 -2.827,-3.133 -4.693,-7.012 -5.615,-11.644 -3.238,4.144 -6.783,7.664 -10.634,10.56 -3.849,2.894 -14.241,5.334 -22.208,0.494 -2.911,-1.769 -5.151,-4.125 -6.977,-6.652 -1.832,-2.525 -3.219,-5.213 -4.166,-8.059 -0.948,-2.846 -1.574,-5.5 -1.88,-7.963 -0.206,-2.25 -0.282,-4.091 -0.217,-5.517 -0.039,-3.775 0.491,-7.881 1.603,-12.324 1.108,-4.44 2.627,-8.863 4.548,-13.27 1.931,-4.404 4.3,-8.637 7.131,-12.696 2.828,-4.062 5.938,-7.647 9.341,-10.767 3.401,-3.117 7.1,-5.559 11.102,-7.324 4.005,-1.763 8.247,-2.55 12.726,-2.358 1.325,0.058 2.643,0.217 3.959,0.477 1.31,0.263 2.725,0.631 4.238,1.1 2.608,0.93 4.815,2.328 6.625,4.19 1.807,1.864 3.271,4.019 4.388,6.461 1.12,2.446 1.977,5.035 2.573,7.763 0.594,2.726 0.986,5.423 1.179,8.084 m -14.42,-0.932 c 1.445,0.428 3.042,1.002 4.738,1.889 -0.692,-0.538 -1.021,-1.116 -0.998,-1.726 0.016,-0.307 -0.047,-0.665 -0.179,-1.078 -0.138,-0.413 -0.25,-0.827 -0.331,-1.238 -0.166,-1.027 -0.419,-2.107 -0.775,-3.248 -0.362,-1.138 -0.827,-2.2 -1.394,-3.198 -0.567,-0.992 -1.273,-1.814 -2.112,-2.459 -0.839,-0.653 -1.92,-1.052 -3.236,-1.213 -3.765,-0.262 -7.261,0.936 -10.487,3.603 -3.225,2.667 -6.052,6.088 -8.475,10.267 -2.427,4.178 -4.459,8.683 -6.093,13.507 -1.637,4.825 -2.746,9.216 -3.321,13.17 -0.254,1.114 -0.392,2.505 -0.411,4.189 -0.021,1.682 0.083,3.345 0.317,4.987 0.206,2.356 1.716,8.319 8.258,7.241 4.062,-0.67 8.376,-7.363 10.223,-9.887 1.841,-2.521 3.614,-5.197 5.317,-8.034 1.705,-2.832 3.112,-5.395 4.232,-7.693 0.647,-3.134 1.211,-6.145 1.691,-9.033 0.48,-2.887 0.663,-5.351 0.551,-7.397 0,-0.001 -1.178,-3.73 2.485,-2.649"
   id="path4126" />

	<path
   style="fill:#171052"
   clip-path="url(#SVGID_5_)"
   d="m 467.987,95.464 c 1.324,-0.711 3.134,-0.575 5.425,0.401 2.29,0.979 4.522,2.411 6.709,4.305 2.186,1.895 3.961,4.092 5.327,6.592 1.366,2.508 1.79,4.926 1.271,7.269 0.102,-0.205 0.053,0 -0.154,0.611 -0.207,0.608 -0.488,1.426 -0.849,2.442 -0.365,1.017 -0.771,2.189 -1.234,3.509 -0.464,1.326 -0.903,2.548 -1.314,3.664 -0.926,2.65 -1.986,5.574 -3.168,8.779 -1.187,3.205 -2.316,6.465 -3.399,9.773 -1.079,3.308 -2.14,6.538 -3.17,9.696 -1.029,3.154 -1.834,5.954 -2.401,8.398 -0.569,2.444 -0.935,4.405 -1.089,5.88 -0.161,1.479 0.065,2.217 0.674,2.217 l 1.076,0.008 c 2.955,-1.008 5.637,-2.654 8.04,-4.939 2.403,-2.285 4.606,-4.898 6.604,-7.851 1.998,-2.945 3.817,-6.069 5.461,-9.377 1.643,-3.306 3.234,-6.484 4.774,-9.539 l 1.694,-3.66 c 0.31,-0.611 1.048,-0.735 2.219,-0.376 1.17,0.362 2.313,0.98 3.432,1.848 1.118,0.873 2.061,1.844 2.818,2.915 0.763,1.074 0.934,1.967 0.522,2.678 l 0.159,-0.306 c -2.984,6.614 -6.548,13.327 -10.703,20.137 -4.151,6.815 -8.583,12.812 -13.29,17.99 -0.817,0.712 -1.789,1.553 -2.911,2.516 -1.125,0.963 -2.432,1.848 -3.908,2.657 -1.482,0.808 -3.09,1.491 -4.823,2.048 -1.736,0.551 -3.571,0.824 -5.506,0.815 -4.077,-0.115 -7.278,-1.681 -9.617,-4.696 -2.328,-3.013 -3.843,-6.763 -4.541,-11.251 -0.195,-1.628 -0.317,-3.312 -0.362,-5.048 -0.045,-1.732 0.039,-3.514 0.248,-5.347 l -0.002,0.151 c 0.531,-5.094 1.626,-11.001 3.277,-17.723 1.658,-6.719 3.414,-13.437 5.272,-20.158 1.138,-4.583 2.271,-9.032 3.415,-13.362 1.133,-4.327 2.438,-10.989 2.643,-11.836 0.343,-1.438 1.381,-1.83 1.381,-1.83"
   id="path4128" />

</g>
      <g
         id="g4145">
	<defs
   id="defs4133">
		<path
   id="path4214"
   d="m 482.665,50.624 c -8.701,15.503 -10.025,31.285 -2.965,35.25 7.066,3.965 19.846,-5.385 28.547,-20.889 8.703,-15.505 10.029,-31.284 2.963,-35.25 -1.098,-0.616 -2.334,-0.911 -3.671,-0.911 -7.268,0 -17.527,8.706 -24.874,21.8" />

	</defs>

	<clipPath
   id="SVGID_7_">
		<use
   height="100%"
   width="100%"
   y="0"
   x="0"
   style="overflow:visible"
   xlink:href="#SVGID_6_"
   overflow="visible"
   id="use4135" />

	</clipPath>

	
		<linearGradient
   id="SVGID_8_"
   gradientUnits="userSpaceOnUse"
   x1="-863.50153"
   y1="693.2334"
   x2="-862.50153"
   y2="693.2334"
   gradientTransform="matrix(10.6304,-60.5959,-60.5959,-10.6304,51676.91,-44867.121)">
		<stop
   offset="0"
   style="stop-color:#33A02C"
   id="stop4138" />

		<stop
   offset="1"
   style="stop-color:#99CF16"
   id="stop4140" />

	</linearGradient>

	<polygon
   style="fill:url(#SVGID_8_)"
   clip-path="url(#SVGID_7_)"
   points="462.256,88.017 474.002,21.057 528.66,30.646 516.913,97.606 "
   id="polygon4143" />

</g>
      <g
         id="g4160">
	<defs
   id="defs4148">
		<path
   id="path4224"
   d="m 472.845,61.85 c -1.422,12.951 2.203,23.978 8.107,24.628 5.897,0.654 11.845,-9.321 13.272,-22.274 1.427,-12.949 -2.201,-23.981 -8.106,-24.628 -0.185,-0.021 -0.367,-0.031 -0.55,-0.031 -5.713,10e-4 -11.334,9.751 -12.723,22.305" />

	</defs>

	<clipPath
   id="SVGID_10_">
		<use
   height="100%"
   width="100%"
   y="0"
   x="0"
   style="overflow:visible"
   xlink:href="#SVGID_9_"
   overflow="visible"
   id="use4150" />

	</clipPath>

	
		<linearGradient
   id="SVGID_11_"
   gradientUnits="userSpaceOnUse"
   x1="-863.96088"
   y1="692.08588"
   x2="-862.96143"
   y2="692.08588"
   gradientTransform="matrix(8.1404,-46.402,-46.402,-8.1404,39626.621,-34369.43)">
		<stop
   offset="0"
   style="stop-color:#008837"
   id="stop4153" />

		<stop
   offset="1"
   style="stop-color:#66B821"
   id="stop4155" />

	</linearGradient>

	<polygon
   style="fill:url(#SVGID_11_)"
   clip-path="url(#SVGID_10_)"
   points="463.324,85.711 472.146,35.421 503.75,40.966 494.928,91.255 "
   id="polygon4158" />

</g>
      <g
         id="g4174">
	<defs
   id="defs4163">
		<rect
   id="rect4234"
   x="-650"
   y="-252"
   width="1920"
   height="1080" />

	</defs>

	<clipPath
   id="SVGID_13_">
		<use
   height="100%"
   width="100%"
   y="0"
   x="0"
   style="overflow:visible"
   xlink:href="#SVGID_12_"
   overflow="visible"
   id="use4165" />

	</clipPath>

	<path
   style="fill:#171052"
   clip-path="url(#SVGID_13_)"
   d="m 118.288,170.66 c -0.603,0.065 -1.269,0.355 -2.001,0.564 7.291,-6.926 12.977,-14.535 17.012,-22.859 4.955,-10.225 5.887,-20.91 2.803,-32.052 l -0.605,-1.711 c -3.624,-10.259 -9.332,-17.503 -17.127,-21.734 -7.796,-4.229 -16.676,-6.033 -26.653,-5.408 -9.976,0.624 -20.015,3.079 -30.112,7.361 -0.402,0.17 -0.791,0.365 -1.19,0.54 l -0.013,-0.036 c -0.144,0.078 -0.311,0.168 -0.49,0.264 -4.613,2.042 -9.067,4.349 -13.344,6.957 -9.554,4.934 -20.745,10.645 -23.464,11.874 -4.502,2.042 -10.183,4.461 -12.184,5.166 -2.003,0.702 -2.73,2.601 -2.73,2.601 -0.667,1.971 0.01,4.383 2.039,7.227 2.033,2.842 10.62,9.957 14.482,11.429 4.35,1.664 7.571,1.373 10.964,-0.477 1.531,-0.832 27.378,-15.769 34.022,-19.494 0.51,-0.215 1.038,-0.438 1.522,-0.643 6.4,-2.711 12.07,-3.804 17.003,-3.273 4.932,0.531 9.013,2.171 12.255,4.927 3.236,2.756 5.603,6.242 7.094,10.459 1.732,4.903 2.141,10.265 1.22,16.091 -0.911,5.83 -3.229,11.299 -6.942,16.414 -3.716,5.113 -10.899,9.607 -17.55,12.425 l -3.432,1.517 c 0,0 0.345,-37.491 -0.111,-41.582 -0.023,-0.206 -0.048,-0.349 -0.074,-0.425 -0.563,-1.596 -1.804,-2.903 -3.721,-3.927 -6.37,-3.199 -9.875,0.615 -14.495,2.757 -4.639,2.151 -6.555,3.769 -8.49,4.693 -2.171,1.038 -1.598,3.3 -1.316,4.098 0.281,0.798 0.481,1.761 0.598,2.892 0.114,1.131 0.189,2.543 0.217,4.232 -0.001,7.001 7.63,112.682 7.79,116.139 0.328,7.192 0.706,13.153 1.13,17.887 0.426,4.732 0.967,9.378 1.621,10.698 0.874,1.77 2.644,3.029 5.327,3.77 2.678,0.748 5.625,1.439 8.857,1.439 12.071,0 24.273,-3.927 30.748,-6.299 6.471,-2.37 39.801,-13.89 54.551,-49.747 6.49,-15.776 11.364,-80.924 -45.211,-74.754 m -14.436,103.153 c -11.083,3.079 -20.25,4.652 -20.25,4.652 0,0 -2.639,-69.576 -2.599,-78.194 1.164,-0.928 21.843,-15.494 41.115,-11.767 9.299,1.798 17.513,15.223 18.881,31.811 1.644,19.908 -2.873,41.799 -37.147,53.498"
   id="path4168" />

	<path
   style="fill:#171052"
   clip-path="url(#SVGID_13_)"
   d="m 441.314,217.709 c -21.479,-2.741 -42.77,-7.41 -64.093,-10.778 -56.144,-8.87 -124.734,-17.106 -173.882,18.248 -10.971,7.892 -19.248,17.913 -26.25,29.249 -0.955,1.546 -4.99,7.519 -3.44,8.253 1.21,0.573 12.677,-13.915 20.718,-19.125 19.295,-12.501 42.186,-18.8 64.971,-21.377 36.297,-4.107 73.364,0.213 109.034,6.807 25.788,4.769 55.232,9.312 78.365,11.022"
   id="path4170" />

	<path
   style="fill:#171052"
   clip-path="url(#SVGID_13_)"
   d="m 392.851,233.1 c 55.104,8.8 116.638,17.611 164.827,-17.646 10.796,-7.899 18.942,-17.924 25.837,-29.265 0.94,-1.547 4.913,-7.522 3.39,-8.256 -0.876,-0.419 -3.563,4.944 -6.674,7.959 -4.237,4.106 -8.812,7.913 -13.715,11.179 -18.924,12.604 -41.503,18.824 -63.915,21.416 -35.702,4.129 -71.419,-2.17 -106.63,-8"
   id="path4172" />

</g>
    </g>
  </g>
</svg>
