<?xml version="1.0" encoding="UTF-8" standalone="no"?>
<svg
   xmlns:dc="http://purl.org/dc/elements/1.1/"
   xmlns:cc="http://creativecommons.org/ns#"
   xmlns:rdf="http://www.w3.org/1999/02/22-rdf-syntax-ns#"
   xmlns:svg="http://www.w3.org/2000/svg"
   xmlns="http://www.w3.org/2000/svg"
   id="svg3753"
   version="1.1"
   viewBox="0 0 105.83333 105.83335"
   height="400"
   width="400">
  <defs
     id="defs3747" />
  <metadata
     id="metadata3750">
    <rdf:RDF>
      <cc:Work
         rdf:about="">
        <dc:format>image/svg+xml</dc:format>
        <dc:type
           rdf:resource="http://purl.org/dc/dcmitype/StillImage" />
        <dc:title></dc:title>
      </cc:Work>
    </rdf:RDF>
  </metadata>
  <g
     transform="translate(0,-191.16653)"
     id="layer1">
    <path
       id="path3757"
       d="M 98.951751,273.52677 H 9.1494396 V 214.63963 H 98.951751 Z"
       style="clip-rule:evenodd;fill:#ffffff;fill-rule:evenodd;stroke-width:0.5534662" />
    <path
       id="path3759"
       d="m 16.016904,218.17844 c 0,0 1.140998,0.49459 2.352004,-1.07549 0.757258,-0.98197 0.836973,-0.9358 0.836973,-0.9358 0,0 -0.935589,-0.51078 -1.753656,0.42143 a 163.05833,191.30706 0 0 0 -1.225826,1.40282 z m -2.787867,0 c 0,0 1.141004,0.49459 2.352004,-1.07549 0.757264,-0.98197 0.837487,-0.9358 0.837487,-0.9358 0,0 -0.936103,-0.51078 -1.75417,0.42143 a 150.87369,177.01152 0 0 0 -1.225306,1.40282 z m 1.43277,0.46761 c 0,0 1.140998,-0.49458 2.35149,1.07549 0.757264,0.98198 0.836973,0.93581 0.836973,0.93581 0,0 -0.936097,0.51077 -1.753656,-0.42144 a 148.69848,174.45946 0 0 1 -1.225312,-1.40222 z m 4.395891,-0.46761 c 0,0 1.140999,0.49459 2.352004,-1.07549 0.757258,-0.98197 0.836973,-0.9358 0.836973,-0.9358 0,0 -0.935589,-0.51078 -1.75417,0.42143 a 150.87369,177.01152 0 0 0 -1.225307,1.40282 z m -1.355611,0.46761 c 0,0 1.141004,-0.49458 2.352005,1.07549 0.757263,0.98198 0.836973,0.93581 0.836973,0.93581 0,0 -0.935589,0.51077 -1.753657,-0.42144 a 177.50963,208.26195 0 0 1 -1.22582,-1.40222 z m 4.395892,-0.46761 c 0,0 1.14049,0.49459 2.351496,-1.07549 0.757772,-0.98197 0.836973,-0.9358 0.836973,-0.9358 0,0 -0.936102,-0.51078 -1.753656,0.42143 a 163.05833,191.30706 0 0 0 -1.225821,1.40282 z m -1.355097,0.46761 c 0,0 1.14049,-0.49458 2.351495,1.07549 0.756751,0.98198 0.836974,0.93581 0.836974,0.93581 0,0 -0.935081,0.51017 -1.75417,-0.42144 a 180.7354,212.04656 0 0 1 -1.225312,-1.40222 z m 4.395383,-0.46761 c 0,0 1.140998,0.49459 2.352004,-1.07549 0.757258,-0.98197 0.837481,-0.9358 0.837481,-0.9358 0,0 -0.936097,-0.51078 -1.754164,0.42143 a 150.87369,177.01152 0 0 0 -1.225312,1.40282 z m -1.355097,0.46761 c 0,0 1.141511,-0.49458 2.352003,1.07549 0.756751,0.98198 0.836974,0.93581 0.836974,0.93581 0,0 -0.936103,0.51077 -1.753657,-0.42144 -1.016833,-1.15703 -1.225819,-1.40222 -1.225819,-1.40222 z m 4.395891,-0.46761 c 0,0 1.140999,0.49459 2.352004,-1.07549 0.757264,-0.98197 0.836973,-0.9358 0.836973,-0.9358 0,0 -0.935589,-0.51078 -1.754164,0.42143 a 150.87369,177.01152 0 0 0 -1.225313,1.40282 z m -1.35561,0.46761 c 0,0 1.14049,-0.49458 2.352009,1.07549 0.757258,0.98198 0.837481,0.93581 0.837481,0.93581 0,0 -0.936103,0.51077 -1.754164,-0.42144 a 177.50963,208.26195 0 0 1 -1.225826,-1.40222 z m 4.395383,-0.46761 c 0,0 1.141003,0.49459 2.352004,-1.07549 0.757263,-0.98197 0.836973,-0.9358 0.836973,-0.9358 0,0 -0.935589,-0.51078 -1.753656,0.42143 a 165.77312,194.49217 0 0 0 -1.225313,1.40282 z m -1.355097,0.46761 c 0,0 1.141003,-0.49458 2.351495,1.07549 0.757259,0.98198 0.837482,0.93581 0.837482,0.93581 0,0 -0.935589,0.51077 -1.754165,-0.42144 a 163.16409,191.43115 0 0 1 -1.225312,-1.40222 z m 4.395891,-0.46761 c 0,0 1.141003,0.49459 2.352004,-1.07549 0.75675,-0.98197 0.836973,-0.9358 0.836973,-0.9358 0,0 -0.935589,-0.51078 -1.754165,0.42143 a 165.77312,194.49217 0 0 0 -1.225312,1.40282 z m -1.355097,0.46761 c 0,0 1.141003,-0.49458 2.352003,1.07549 0.757264,0.98198 0.836974,0.93581 0.836974,0.93581 0,0 -0.936103,0.51077 -1.75417,-0.42144 a 177.50963,208.26195 0 0 1 -1.225821,-1.40222 z m 4.395383,-0.46761 c 0,0 1.140998,0.49459 2.352003,-1.07549 0.757259,-0.98197 0.836974,-0.9358 0.836974,-0.9358 0,0 -0.935594,-0.51078 -1.75417,0.42143 a 150.87369,177.01152 0 0 0 -1.225312,1.40282 z m -1.355097,0.46761 c 0,0 1.140997,-0.49458 2.352004,1.07549 0.757258,0.98198 0.836967,0.93581 0.836967,0.93581 0,0 -0.936097,0.51077 -1.754164,-0.42144 a 163.16409,191.43115 0 0 1 -1.225313,-1.40222 z m 4.395378,-0.46761 c 0,0 1.141003,0.49459 2.352003,-1.07549 0.757264,-0.98197 0.836973,-0.9358 0.836973,-0.9358 0,0 -0.935589,-0.51078 -1.753656,0.42143 a 150.87369,177.01152 0 0 0 -1.225312,1.40282 z m -1.355097,0.46761 c 0,0 1.141002,-0.49458 2.351495,1.07549 0.757259,0.98198 0.837482,0.93581 0.837482,0.93581 0,0 -0.936103,0.51077 -1.754165,-0.42144 a 177.50963,208.26195 0 0 1 -1.225826,-1.40222 z m 4.395891,-0.46761 c 0,0 1.141003,0.49459 2.352003,-1.07549 0.756752,-0.98197 0.836975,-0.9358 0.836975,-0.9358 0,0 -0.935591,-0.51078 -1.754166,0.42143 a 163.05833,191.30706 0 0 0 -1.225825,1.40282 z m -1.355097,0.46761 c 0,0 1.141003,-0.49458 2.351495,1.07549 0.757772,0.98198 0.837482,0.93581 0.837482,0.93581 0,0 -0.936097,0.51077 -1.754165,-0.42144 a 163.16409,191.43115 0 0 1 -1.225312,-1.40222 z m 4.395382,-0.46761 c 0,0 1.141,0.49459 2.351493,-1.07549 0.75726,-0.98197 0.837485,-0.9358 0.837485,-0.9358 0,0 -0.936101,-0.51078 -1.754169,0.42143 -1.016834,1.15702 -1.22531,1.40282 -1.22531,1.40282 z m -1.355096,0.46761 c 0,0 1.140998,-0.49458 2.352003,1.07549 0.756749,0.98198 0.836971,0.93581 0.836971,0.93581 0,0 -0.9361,0.51077 -1.753656,-0.42144 -1.016837,-1.15703 -1.225818,-1.40222 -1.225818,-1.40222 z m 4.395381,-0.46761 c 0,0 1.141001,0.49459 2.352003,-1.07549 0.756749,-0.98197 0.836973,-0.9358 0.836973,-0.9358 0,0 -0.935593,-0.51078 -1.753658,0.42143 a 150.87369,177.01152 0 0 0 -1.225311,1.40282 z m -1.355099,0.46761 c 0,0 1.140999,-0.49458 2.351492,1.07549 0.757261,0.98198 0.837485,0.93581 0.837485,0.93581 0,0 -0.936104,0.51077 -1.753658,-0.42144 a 177.50963,208.26195 0 0 1 -1.225821,-1.40222 z m 4.39589,-0.46761 c 0,0 1.141001,0.49459 2.352515,-1.07549 0.756241,-0.98197 0.836463,-0.9358 0.836463,-0.9358 0,0 -0.935077,-0.51078 -1.753656,0.42143 a 165.77312,194.49217 0 0 0 -1.225311,1.40282 z m -1.355606,0.46761 c 0,0 1.140999,-0.49458 2.352005,1.07549 0.757261,0.98198 0.836973,0.93581 0.836973,0.93581 0,0 -0.935593,0.51077 -1.754168,-0.42144 a 177.50963,208.26195 0 0 1 -1.225823,-1.40222 z m 4.395381,-0.46761 c 0,0 1.14049,0.49459 2.352515,-1.07549 0.757261,-0.98197 0.83646,-0.9358 0.83646,-0.9358 0,0 -0.935078,-0.51078 -1.753657,0.42143 a 165.77312,194.49217 0 0 0 -1.225311,1.40282 z m -1.355096,0.46761 c 0,0 1.141508,-0.49458 2.352002,1.07549 0.757261,0.98198 0.837481,0.93581 0.837481,0.93581 0,0 -0.9361,0.51077 -1.753653,-0.42144 -1.016834,-1.15703 -1.226333,-1.40222 -1.226333,-1.40222 z m 4.395889,-0.46761 c 0,0 1.140491,0.49459 2.351494,-1.07549 0.757262,-0.98197 0.837482,-0.9358 0.837482,-0.9358 0,0 -0.935077,-0.51078 -1.753656,0.42143 a 165.77312,194.49217 0 0 0 -1.22531,1.40282 z m -1.355098,0.46761 c 0,0 1.140489,-0.49458 2.351495,1.07549 0.75726,0.98198 0.83748,0.93581 0.83748,0.93581 0,0 -0.935076,0.51077 -1.753653,-0.42144 -1.016833,-1.15703 -1.226332,-1.40222 -1.226332,-1.40222 z m 4.395892,-0.46761 c 0,0 1.14049,0.49459 2.351495,-1.07549 0.757262,-0.98197 0.837481,-0.9358 0.837481,-0.9358 0,0 -0.9361,-0.51078 -1.754678,0.42143 A 165.77312,194.49217 0 0 0 61.8327,217.9914 Z m -1.355097,0.46761 c 0,0 1.140489,-0.49458 2.351495,1.07549 0.757261,0.98198 0.837483,0.93581 0.837483,0.93581 0,0 -0.936102,0.51077 -1.753656,-0.42144 -1.016837,-1.15703 -1.226336,-1.40222 -1.226336,-1.40222 z m 4.394868,-0.46761 c 0,0 1.140494,0.49459 2.351495,-1.07549 0.757262,-0.98197 0.837486,-0.9358 0.837486,-0.9358 0,0 -0.93508,-0.51078 -1.753658,0.42143 -1.016833,1.15702 -1.225312,1.40282 -1.225312,1.40282 z m -1.355095,0.46761 c 0,0 1.140488,-0.49458 2.352514,1.07549 0.757261,0.98198 0.836462,0.93581 0.836462,0.93581 0,0 -0.935077,0.51077 -1.753657,-0.42144 a 180.7354,212.04656 0 0 1 -1.22531,-1.40222 z m 4.396403,-0.46761 c 0,0 1.140489,0.49459 2.351492,-1.07549 0.75726,-0.98197 0.837485,-0.9358 0.837485,-0.9358 0,0 -0.9361,-0.51078 -1.754679,0.42143 a 165.77312,194.49217 0 0 0 -1.225311,1.40282 z m -1.355609,0.46761 c 0,0 1.14049,-0.49458 2.351495,1.07549 0.757261,0.98198 0.837481,0.93581 0.837481,0.93581 0,0 -0.9361,0.51077 -1.753654,-0.42144 -1.016837,-1.15703 -1.226335,-1.40222 -1.226335,-1.40222 z m 4.395382,-0.46761 c 0,0 1.140489,0.49459 2.351493,-1.07549 0.757262,-0.98197 0.837483,-0.9358 0.837483,-0.9358 0,0 -0.935077,-0.51078 -1.753656,0.42143 -1.016833,1.15702 -1.225312,1.40282 -1.225312,1.40282 z m -1.354586,0.46761 c 0,0 1.140488,-0.49458 2.35047,1.07549 0.757262,0.98198 0.837481,0.93581 0.837481,0.93581 0,0 -0.935075,0.51077 -1.753653,-0.42144 a 180.7354,212.04656 0 0 1 -1.225312,-1.40222 z m 4.395381,-0.46761 c 0,0 1.140489,0.49459 2.351495,-1.07549 0.757257,-0.98197 0.837481,-0.9358 0.837481,-0.9358 0,0 -0.9361,-0.51078 -1.754678,0.42143 a 165.77312,194.49217 0 0 0 -1.225311,1.40282 z m -1.355098,0.46761 c 0,0 1.14049,-0.49458 2.351491,1.07549 0.757261,0.98198 0.837487,0.93581 0.837487,0.93581 0,0 -0.936101,0.51077 -1.75366,-0.42144 a 148.69848,174.45946 0 0 1 -1.225307,-1.40222 z m 4.394869,-0.46761 c 0,0 1.140489,0.49459 2.352515,-1.07549 0.757261,-0.98197 0.837486,-0.9358 0.837486,-0.9358 0,0 -0.936101,-0.51078 -1.754679,0.42143 -1.016834,1.15702 -1.225311,1.40282 -1.225311,1.40282 z m -1.354076,0.46761 c 0,0 1.140491,-0.49458 2.351495,1.07549 0.757261,0.98198 0.836461,0.93581 0.836461,0.93581 0,0 -0.935081,0.51077 -1.753655,-0.42144 a 180.7354,212.04656 0 0 1 -1.225312,-1.40222 z m 4.394872,-0.46761 c 0,0 1.140488,0.49459 2.351494,-1.07549 0.757257,-0.98197 0.837482,-0.9358 0.837482,-0.9358 0,0 -0.9361,-0.51078 -1.754679,0.42143 a 165.77312,194.49217 0 0 0 -1.225311,1.40282 z m -1.355097,0.46761 c 0,0 1.140489,-0.49458 2.351491,1.07549 0.757261,0.98198 0.837485,0.93581 0.837485,0.93581 0,0 -0.936101,0.51077 -1.753655,-0.42144 -1.016837,-1.15703 -1.226334,-1.40222 -1.226334,-1.40222 z m 4.39538,-0.46761 c 0,0 1.14049,0.49459 2.352516,-1.07549 0.757261,-0.98197 0.836461,-0.9358 0.836461,-0.9358 0,0 -0.936101,-0.51078 -1.753656,0.42143 -1.016836,1.15702 -1.22531,1.40282 -1.22531,1.40282 z m -1.355609,0.46761 c 0,0 1.141514,-0.49458 2.352515,1.07549 0.757261,0.98198 0.836461,0.93581 0.836461,0.93581 0,0 -0.935079,0.51077 -1.753654,-0.42144 a 180.7354,212.04656 0 0 1 -1.225311,-1.40222 z m 4.396405,-0.46761 c 0,0 1.14049,0.49459 2.351491,-1.07549 0.757261,-0.98197 0.837485,-0.9358 0.837485,-0.9358 0,0 -0.9361,-0.51078 -1.753658,0.42143 -1.016834,1.15702 -1.225311,1.40282 -1.225311,1.40282 z m -1.355609,0.46761 c 0,0 1.140488,-0.49458 2.351489,1.07549 0.757262,0.98198 0.837486,0.93581 0.837486,0.93581 0,0 -0.936099,0.51077 -1.753653,-0.42144 -1.016838,-1.15703 -1.226336,-1.40222 -1.226336,-1.40222 z m 4.39538,-0.46761 c 0,0 1.141513,0.49459 2.352515,-1.07549 0.757261,-0.98197 0.836461,-0.9358 0.836461,-0.9358 0,0 -0.935079,-0.51078 -1.753654,0.42143 a 165.77312,194.49217 0 0 0 -1.225311,1.40282 z m -1.355097,0.46761 c 0,0 1.14151,-0.49458 2.352516,1.07549 0.75726,0.98198 0.836461,0.93581 0.836461,0.93581 0,0 -0.935081,0.51077 -1.753656,-0.42144 a 180.7354,212.04656 0 0 1 -1.22531,-1.40222 z m 4.395892,-0.46761 c 0,0 1.140486,0.49459 2.351489,-1.07549 0.757262,-0.98197 0.837483,-0.9358 0.837483,-0.9358 0,0 -0.936099,-0.51078 -1.753658,0.42143 -1.016828,1.15702 -1.226327,1.40282 -1.226327,1.40282 z m -1.355096,0.46761 c 0,0 1.14049,-0.49458 2.352514,1.07549 0.756234,0.98198 0.836463,0.93581 0.836463,0.93581 0,0 -0.935079,0.51077 -1.753659,-0.42144 a 180.7354,212.04656 0 0 1 -1.225311,-1.40222 z m -74.655569,50.76399 c 0,0 1.140998,0.49518 2.352004,-1.0749 0.757258,-0.98197 0.836973,-0.93641 0.836973,-0.93641 0,0 -0.935589,-0.51077 -1.753656,0.42145 a 180.95257,212.30135 0 0 0 -1.225826,1.40281 z m -2.787867,0 c 0,0 1.141004,0.49518 2.352004,-1.0749 0.757264,-0.98197 0.837487,-0.93641 0.837487,-0.93641 0,0 -0.936103,-0.51077 -1.75417,0.42145 a 166.07204,194.84288 0 0 0 -1.225306,1.40281 z m 1.43277,0.4676 c 0,0 1.140998,-0.49398 2.35149,1.07609 0.757264,0.98197 0.836973,0.93522 0.836973,0.93522 0,0 -0.936097,0.51137 -1.753656,-0.42084 -1.016834,-1.15763 -1.225312,-1.40282 -1.225312,-1.40282 z m 4.395891,-0.4676 c 0,0 1.140999,0.49518 2.352004,-1.0749 0.757258,-0.98197 0.836973,-0.93641 0.836973,-0.93641 0,0 -0.935589,-0.51077 -1.75417,0.42145 a 166.07204,194.84288 0 0 0 -1.225307,1.40281 z m -1.355611,0.4676 c 0,0 1.141004,-0.49398 2.352005,1.07609 0.757263,0.98197 0.836973,0.93522 0.836973,0.93522 0,0 -0.935589,0.51137 -1.753657,-0.42084 a 180.95257,212.30135 0 0 1 -1.22582,-1.40282 z m 4.395892,-0.4676 c 0,0 1.14049,0.49518 2.351496,-1.0749 0.757772,-0.98197 0.836973,-0.93641 0.836973,-0.93641 0,0 -0.936102,-0.51077 -1.753656,0.42145 a 180.95257,212.30135 0 0 0 -1.225821,1.40281 z m -1.355097,0.4676 c 0,0 1.14049,-0.49398 2.351495,1.07609 0.756751,0.98197 0.836974,0.93522 0.836974,0.93522 0,0 -0.935589,0.51137 -1.75417,-0.42084 a 184.30607,216.23582 0 0 1 -1.225312,-1.40282 z m 4.395383,-0.4676 c 0,0 1.140998,0.49518 2.352004,-1.0749 0.757258,-0.98197 0.837481,-0.93641 0.837481,-0.93641 0,0 -0.936097,-0.51077 -1.754164,0.42145 a 166.07204,194.84288 0 0 0 -1.225312,1.40281 z m -1.355097,0.4676 c 0,0 1.141511,-0.49398 2.352003,1.07609 0.756751,0.98197 0.836974,0.93522 0.836974,0.93522 0,0 -0.936103,0.51137 -1.753657,-0.42084 -1.016833,-1.15763 -1.225819,-1.40282 -1.225819,-1.40282 z m 4.395891,-0.4676 c 0,0 1.140999,0.49518 2.352004,-1.0749 0.757264,-0.98197 0.836973,-0.93641 0.836973,-0.93641 0,0 -0.935589,-0.51077 -1.754164,0.42145 a 166.07204,194.84288 0 0 0 -1.225313,1.40281 z m -1.35561,0.4676 c 0,0 1.14049,-0.49398 2.352009,1.07609 0.757258,0.98197 0.837481,0.93522 0.837481,0.93522 0,0 -0.936103,0.51137 -1.754164,-0.42084 a 180.95257,212.30135 0 0 1 -1.225826,-1.40282 z m 4.395383,-0.4676 c 0,0 1.141003,0.49518 2.352004,-1.0749 0.757263,-0.98197 0.836973,-0.93641 0.836973,-0.93641 0,0 -0.935589,-0.51077 -1.753656,0.42145 a 184.30607,216.23582 0 0 0 -1.225313,1.40281 z m -1.355097,0.4676 c 0,0 1.141003,-0.49398 2.351495,1.07609 0.757259,0.98197 0.837482,0.93522 0.837482,0.93522 0,0 -0.935589,0.51137 -1.754165,-0.42084 a 166.07204,194.84288 0 0 1 -1.225312,-1.40282 z m 4.395891,-0.4676 c 0,0 1.141003,0.49518 2.352004,-1.0749 0.75675,-0.98197 0.836973,-0.93641 0.836973,-0.93641 0,0 -0.935589,-0.51077 -1.754165,0.42145 a 184.30607,216.23582 0 0 0 -1.225312,1.40281 z m -1.355097,0.4676 c 0,0 1.141003,-0.49398 2.352003,1.07609 0.757264,0.98197 0.836974,0.93522 0.836974,0.93522 0,0 -0.936103,0.51137 -1.75417,-0.42084 a 180.95257,212.30135 0 0 1 -1.225821,-1.40282 z m 4.395383,-0.4676 c 0,0 1.140998,0.49518 2.352003,-1.0749 0.757259,-0.98197 0.836974,-0.93641 0.836974,-0.93641 0,0 -0.935594,-0.51077 -1.75417,0.42145 a 166.07204,194.84288 0 0 0 -1.225312,1.40281 z m -1.355097,0.4676 c 0,0 1.140997,-0.49398 2.352004,1.07609 0.757258,0.98197 0.836967,0.93522 0.836967,0.93522 0,0 -0.936097,0.51137 -1.754164,-0.42084 a 166.07204,194.84288 0 0 1 -1.225313,-1.40282 z m 4.395378,-0.4676 c 0,0 1.141003,0.49518 2.352003,-1.0749 0.757264,-0.98197 0.836973,-0.93641 0.836973,-0.93641 0,0 -0.935589,-0.51077 -1.753656,0.42145 a 166.07204,194.84288 0 0 0 -1.225312,1.40281 z m -1.355097,0.4676 c 0,0 1.141002,-0.49398 2.351495,1.07609 0.757259,0.98197 0.837482,0.93522 0.837482,0.93522 0,0 -0.936103,0.51137 -1.754165,-0.42084 a 180.95257,212.30135 0 0 1 -1.225826,-1.40282 z m 4.395891,-0.4676 c 0,0 1.141003,0.49518 2.352003,-1.0749 0.756752,-0.98197 0.836975,-0.93641 0.836975,-0.93641 0,0 -0.935591,-0.51077 -1.754166,0.42145 a 180.95257,212.30135 0 0 0 -1.225825,1.40281 z m -1.355097,0.4676 c 0,0 1.141003,-0.49398 2.351495,1.07609 0.757772,0.98197 0.837482,0.93522 0.837482,0.93522 0,0 -0.936097,0.51137 -1.754165,-0.42084 a 166.07204,194.84288 0 0 1 -1.225312,-1.40282 z m 4.395382,-0.4676 c 0,0 1.141,0.49518 2.351493,-1.0749 0.75726,-0.98197 0.837485,-0.93641 0.837485,-0.93641 0,0 -0.936101,-0.51077 -1.754169,0.42145 -1.016834,1.15762 -1.22531,1.40281 -1.22531,1.40281 z m -1.355096,0.4676 c 0,0 1.140998,-0.49398 2.352003,1.07609 0.756749,0.98197 0.836971,0.93522 0.836971,0.93522 0,0 -0.9361,0.51137 -1.753656,-0.42084 -1.016837,-1.15763 -1.225818,-1.40282 -1.225818,-1.40282 z m 4.395381,-0.4676 c 0,0 1.141001,0.49518 2.352003,-1.0749 0.756749,-0.98197 0.836973,-0.93641 0.836973,-0.93641 0,0 -0.935593,-0.51077 -1.753658,0.42145 a 166.07204,194.84288 0 0 0 -1.225311,1.40281 z m -1.355099,0.4676 c 0,0 1.140999,-0.49398 2.351492,1.07609 0.757261,0.98197 0.837485,0.93522 0.837485,0.93522 0,0 -0.936104,0.51137 -1.753658,-0.42084 a 180.95257,212.30135 0 0 1 -1.225821,-1.40282 z m 4.39589,-0.4676 c 0,0 1.141001,0.49518 2.352515,-1.0749 0.756241,-0.98197 0.836463,-0.93641 0.836463,-0.93641 0,0 -0.935077,-0.51077 -1.753656,0.42145 a 184.30607,216.23582 0 0 0 -1.225311,1.40281 z m -1.355606,0.4676 c 0,0 1.140999,-0.49398 2.352005,1.07609 0.757261,0.98197 0.836973,0.93522 0.836973,0.93522 0,0 -0.935593,0.51137 -1.754168,-0.42084 a 180.95257,212.30135 0 0 1 -1.225823,-1.40282 z m 4.395381,-0.4676 c 0,0 1.14049,0.49518 2.352515,-1.0749 0.757261,-0.98197 0.83646,-0.93641 0.83646,-0.93641 0,0 -0.935078,-0.51077 -1.753657,0.42145 a 184.30607,216.23582 0 0 0 -1.225311,1.40281 z m -1.355096,0.4676 c 0,0 1.141508,-0.49398 2.352002,1.07609 0.757261,0.98197 0.837481,0.93522 0.837481,0.93522 0,0 -0.9361,0.51137 -1.753653,-0.42084 -1.016834,-1.15763 -1.226333,-1.40282 -1.226333,-1.40282 z m 4.395889,-0.4676 c 0,0 1.140491,0.49518 2.351494,-1.0749 0.757262,-0.98197 0.837482,-0.93641 0.837482,-0.93641 0,0 -0.935077,-0.51077 -1.753656,0.42145 a 184.30607,216.23582 0 0 0 -1.22531,1.40281 z m -1.355098,0.4676 c 0,0 1.140489,-0.49398 2.351495,1.07609 0.75726,0.98197 0.83748,0.93522 0.83748,0.93522 0,0 -0.935074,0.51137 -1.753653,-0.42084 -1.016833,-1.15763 -1.226332,-1.40282 -1.226332,-1.40282 z m 4.395892,-0.4676 c 0,0 1.14049,0.49518 2.351495,-1.0749 0.757262,-0.98197 0.837481,-0.93641 0.837481,-0.93641 0,0 -0.9361,-0.51077 -1.754678,0.42145 a 184.30607,216.23582 0 0 0 -1.225308,1.40281 z m -1.355097,0.4676 c 0,0 1.140489,-0.49398 2.351495,1.07609 0.757261,0.98197 0.837483,0.93522 0.837483,0.93522 0,0 -0.936102,0.51137 -1.753656,-0.42084 -1.016837,-1.15763 -1.226336,-1.40282 -1.226336,-1.40282 z m 4.394868,-0.4676 c 0,0 1.140494,0.49518 2.351495,-1.0749 0.757262,-0.98197 0.837486,-0.93641 0.837486,-0.93641 0,0 -0.93508,-0.51077 -1.753658,0.42145 -1.016833,1.15762 -1.225312,1.40281 -1.225312,1.40281 z m -1.355095,0.4676 c 0,0 1.140488,-0.49398 2.352514,1.07609 0.757261,0.98197 0.836462,0.93522 0.836462,0.93522 0,0 -0.935077,0.51137 -1.753657,-0.42084 a 184.30607,216.23582 0 0 1 -1.22531,-1.40282 z m 4.396403,-0.4676 c 0,0 1.140489,0.49518 2.351492,-1.0749 0.75726,-0.98197 0.837485,-0.93641 0.837485,-0.93641 0,0 -0.9361,-0.51077 -1.754679,0.42145 a 184.30607,216.23582 0 0 0 -1.225311,1.40281 z m -1.355609,0.4676 c 0,0 1.14049,-0.49398 2.351495,1.07609 0.757261,0.98197 0.837481,0.93522 0.837481,0.93522 0,0 -0.9361,0.51137 -1.753654,-0.42084 -1.016837,-1.15763 -1.226335,-1.40282 -1.226335,-1.40282 z m 4.395382,-0.4676 c 0,0 1.140489,0.49518 2.351493,-1.0749 0.757262,-0.98197 0.837483,-0.93641 0.837483,-0.93641 0,0 -0.935077,-0.51077 -1.753656,0.42145 -1.016833,1.15762 -1.225312,1.40281 -1.225312,1.40281 z m -1.354586,0.4676 c 0,0 1.140488,-0.49398 2.35047,1.07609 0.757262,0.98197 0.837481,0.93522 0.837481,0.93522 0,0 -0.935075,0.51137 -1.753653,-0.42084 a 184.30607,216.23582 0 0 1 -1.225312,-1.40282 z m 4.395381,-0.4676 c 0,0 1.140489,0.49518 2.351495,-1.0749 0.757257,-0.98197 0.837481,-0.93641 0.837481,-0.93641 0,0 -0.9361,-0.51077 -1.754678,0.42145 a 184.30607,216.23582 0 0 0 -1.225311,1.40281 z m -1.355098,0.4676 c 0,0 1.14049,-0.49398 2.351491,1.07609 0.757261,0.98197 0.837487,0.93522 0.837487,0.93522 0,0 -0.936101,0.51137 -1.75366,-0.42084 -1.016833,-1.15763 -1.225307,-1.40282 -1.225307,-1.40282 z m 4.394869,-0.4676 c 0,0 1.140489,0.49518 2.352515,-1.0749 0.757261,-0.98197 0.837486,-0.93641 0.837486,-0.93641 0,0 -0.936101,-0.51077 -1.754679,0.42145 -1.016834,1.15762 -1.225311,1.40281 -1.225311,1.40281 z m -1.354076,0.4676 c 0,0 1.140493,-0.49398 2.351495,1.07609 0.757261,0.98197 0.836461,0.93522 0.836461,0.93522 0,0 -0.935081,0.51137 -1.753655,-0.42084 a 184.30607,216.23582 0 0 1 -1.225312,-1.40282 z m 4.394872,-0.4676 c 0,0 1.140488,0.49518 2.351494,-1.0749 0.757257,-0.98197 0.837482,-0.93641 0.837482,-0.93641 0,0 -0.9361,-0.51077 -1.754679,0.42145 a 184.30607,216.23582 0 0 0 -1.225311,1.40281 z m -1.355097,0.4676 c 0,0 1.140489,-0.49398 2.351491,1.07609 0.757261,0.98197 0.837485,0.93522 0.837485,0.93522 0,0 -0.936101,0.51137 -1.753655,-0.42084 -1.016837,-1.15763 -1.226334,-1.40282 -1.226334,-1.40282 z m 4.39538,-0.4676 c 0,0 1.14049,0.49518 2.352516,-1.0749 0.757261,-0.98197 0.836461,-0.93641 0.836461,-0.93641 0,0 -0.936101,-0.51077 -1.753656,0.42145 -1.016836,1.15762 -1.22531,1.40281 -1.22531,1.40281 z m -1.355609,0.4676 c 0,0 1.141514,-0.49398 2.352515,1.07609 0.757261,0.98197 0.836461,0.93522 0.836461,0.93522 0,0 -0.935079,0.51137 -1.753654,-0.42084 a 184.30607,216.23582 0 0 1 -1.225311,-1.40282 z m 4.396405,-0.4676 c 0,0 1.14049,0.49518 2.351491,-1.0749 0.757261,-0.98197 0.837485,-0.93641 0.837485,-0.93641 0,0 -0.9361,-0.51077 -1.753658,0.42145 -1.016834,1.15762 -1.225311,1.40281 -1.225311,1.40281 z m -1.355609,0.4676 c 0,0 1.140488,-0.49398 2.351489,1.07609 0.757262,0.98197 0.837486,0.93522 0.837486,0.93522 0,0 -0.936099,0.51137 -1.753653,-0.42084 -1.016838,-1.15763 -1.226336,-1.40282 -1.226336,-1.40282 z m 4.39538,-0.4676 c 0,0 1.141513,0.49518 2.352515,-1.0749 0.757261,-0.98197 0.836461,-0.93641 0.836461,-0.93641 0,0 -0.935079,-0.51077 -1.753654,0.42145 a 184.30607,216.23582 0 0 0 -1.225311,1.40281 z m -1.355097,0.4676 c 0,0 1.14151,-0.49398 2.352516,1.07609 0.75726,0.98197 0.836461,0.93522 0.836461,0.93522 0,0 -0.935081,0.51137 -1.753656,-0.42084 a 184.30607,216.23582 0 0 1 -1.22531,-1.40282 z m 4.395892,-0.4676 c 0,0 1.140486,0.49518 2.351489,-1.0749 0.757262,-0.98197 0.837483,-0.93641 0.837483,-0.93641 0,0 -0.936099,-0.51077 -1.753658,0.42145 -1.016828,1.15762 -1.226327,1.40281 -1.226327,1.40281 z m -1.355096,0.4676 c 0,0 1.14049,-0.49398 2.352514,1.07609 0.756234,0.98197 0.836463,0.93522 0.836463,0.93522 0,0 -0.935079,0.51137 -1.753659,-0.42084 a 184.30607,216.23582 0 0 1 -1.225311,-1.40282 z m -78.225221,-0.72419 c 0,0 0.421552,-1.33867 -0.916683,-2.75947 -0.836973,-0.88845 -0.797118,-0.98257 -0.797118,-0.98257 0,0 -0.435345,1.09827 0.359212,2.05807 0.986178,1.19239 1.195678,1.43818 1.195678,1.43818 z m 0.39856,-5.05433 c 0,0 -0.422065,-1.33867 0.916175,-2.75888 0.836968,-0.88845 0.797113,-0.98257 0.797113,-0.98257 0,0 0.43535,1.09828 -0.358704,2.05807 a 181.10995,212.486 0 0 1 -1.195159,1.43758 z m 0,3.27084 c 0,0 -0.422065,-1.33807 0.916175,-2.75888 0.836968,-0.88785 0.797113,-0.98197 0.797113,-0.98197 0,0 0.43535,1.09768 -0.358704,2.05746 a 181.10995,212.486 0 0 1 -1.195159,1.4376 z m -0.39856,-1.68098 c 0,0 0.421552,-1.33808 -0.916683,-2.75949 -0.836973,-0.88843 -0.797118,-0.98196 -0.797118,-0.98196 0,0 -0.435345,1.09828 0.359212,2.05807 0.986178,1.19239 1.195678,1.43758 1.195678,1.43758 z m 0.39856,-5.15746 c 0,0 -0.422065,-1.33806 0.916175,-2.75887 0.836968,-0.88845 0.797113,-0.98257 0.797113,-0.98257 0,0 0.43535,1.09767 -0.358704,2.05806 a 181.10995,212.486 0 0 1 -1.195159,1.43759 z m -0.39856,1.59106 c 0,0 0.421552,-1.33867 -0.916683,-2.76007 -0.836973,-0.88785 -0.797118,-0.98197 -0.797118,-0.98197 0,0 -0.435345,1.09767 0.359212,2.05746 0.986178,1.193 1.195678,1.43759 1.195678,1.43759 z m 0.39856,-5.15745 c 0,0 -0.422065,-1.33867 0.916175,-2.76007 0.836968,-0.88785 0.797113,-0.98197 0.797113,-0.98197 0,0 0.43535,1.09767 -0.358704,2.05806 a 203.01838,238.18992 0 0 1 -1.195159,1.43759 z m -0.39856,1.58987 c 0,0 0.421552,-1.33808 -0.916683,-2.75949 -0.836973,-0.88784 -0.797118,-0.98196 -0.797118,-0.98196 0,0 -0.435345,1.09767 0.359212,2.05806 0.986178,1.19179 1.195678,1.43759 1.195678,1.43759 z m 0.39856,-5.15746 c 0,0 -0.422065,-1.33807 0.916175,-2.75887 0.836968,-0.88845 0.797113,-0.98317 0.797113,-0.98317 0,0 0.43535,1.09887 -0.358704,2.05866 a 181.10995,212.486 0 0 1 -1.195159,1.43758 z m -0.39856,1.58986 c 0,0 0.421552,-1.33807 -0.916683,-2.75947 -0.836973,-0.88786 -0.797118,-0.98197 -0.797118,-0.98197 0,0 -0.435345,1.09766 0.359212,2.05746 0.986178,1.19299 1.195678,1.43819 1.195678,1.43819 z m 0.39856,-5.15685 c 0,0 -0.422065,-1.33808 0.916175,-2.75947 0.836968,-0.88786 0.797113,-0.98197 0.797113,-0.98197 0,0 0.43535,1.09767 -0.358704,2.05807 a 203.01838,238.18992 0 0 1 -1.195159,1.43757 z m -0.39856,1.58986 c 0,0 0.421552,-1.33807 -0.916683,-2.75948 -0.836973,-0.88784 -0.797118,-0.98196 -0.797118,-0.98196 0,0 -0.435345,1.09767 0.359212,2.05746 0.986178,1.19239 1.195678,1.43818 1.195678,1.43818 z m 0.39856,-5.15685 c 0,0 -0.422065,-1.33867 0.916175,-2.75887 0.836968,-0.88786 0.797113,-0.98258 0.797113,-0.98258 0,0 0.43535,1.09827 -0.358704,2.05807 a 181.10995,212.486 0 0 1 -1.195159,1.43758 z m -0.39856,1.58986 c 0,0 0.421552,-1.33867 -0.916683,-2.75887 -0.836973,-0.88846 -0.797118,-0.98258 -0.797118,-0.98258 0,0 -0.435345,1.09768 0.359212,2.05746 0.986178,1.193 1.195678,1.43819 1.195678,1.43819 z m 0.39856,-5.15685 c 0,0 -0.422065,-1.33868 0.916175,-2.75948 0.836968,-0.88845 0.797113,-0.98197 0.797113,-0.98197 0,0 0.43535,1.09768 -0.358704,2.05807 a 181.10995,212.486 0 0 1 -1.195159,1.43759 z m -0.39856,1.58986 c 0,0 0.421552,-1.33808 -0.916683,-2.75888 -0.836973,-0.88905 -0.797118,-0.98197 -0.797118,-0.98197 0,0 -0.435345,1.09767 0.359212,2.05746 0.986178,1.1924 1.195678,1.43759 1.195678,1.43759 z m 0.39856,-5.15746 c 0,0 -0.422065,-1.33867 0.916175,-2.75947 0.836968,-0.88785 0.797113,-0.98197 0.797113,-0.98197 0,0 0.43535,1.09767 -0.358704,2.05746 a 198.95156,233.41854 0 0 1 -1.195159,1.43819 z m -0.39856,1.58986 c 0,0 0.421552,-1.33806 -0.916683,-2.75887 -0.836973,-0.88845 -0.797118,-0.98197 -0.797118,-0.98197 0,0 -0.435345,1.09767 0.359212,2.05747 0.986178,1.19239 1.195678,1.43819 1.195678,1.43819 z m 0.39856,-5.15625 c 0,0 -0.422065,-1.33927 0.916175,-2.75947 0.836968,-0.88785 0.797113,-0.98257 0.797113,-0.98257 0,0 0.43535,1.09828 -0.358704,2.05807 a 177.87702,208.69298 0 0 1 -1.195159,1.43818 z m -0.39856,1.58927 c 0,0 0.421552,-1.33868 -0.916683,-2.75888 -0.836973,-0.88785 -0.797118,-0.98257 -0.797118,-0.98257 0,0 -0.435345,1.09827 0.359212,2.05807 0.986178,1.19239 1.195678,1.43818 1.195678,1.43818 z m 0.39856,-5.15685 c 0,0 -0.422065,-1.33867 0.916175,-2.75948 0.836968,-0.88845 0.797113,-0.98198 0.797113,-0.98198 0,0 0.43535,1.09768 -0.358704,2.05747 a 198.95156,233.41854 0 0 1 -1.195159,1.43818 z m -0.39856,1.58985 c 0,0 0.421552,-1.33867 -0.916683,-2.75947 -0.836973,-0.88845 -0.797118,-0.98197 -0.797118,-0.98197 0,0 -0.435345,1.09767 0.359212,2.05746 0.986178,1.1924 1.195678,1.43759 1.195678,1.43759 z m 0.39856,-5.15685 c 0,0 -0.422065,-1.33867 0.916175,-2.75947 0.836968,-0.88845 0.797113,-0.98197 0.797113,-0.98197 0,0 0.43535,1.09768 -0.358704,2.05746 a 177.87702,208.69298 0 0 1 -1.195159,1.43819 z m -0.39856,1.58986 c 0,0 0.421552,-1.33867 -0.916683,-2.75948 -0.836973,-0.88844 -0.797118,-0.98197 -0.797118,-0.98197 0,0 -0.435345,1.09768 0.359212,2.05747 0.986178,1.19239 1.195678,1.43819 1.195678,1.43819 z m 0.39856,-5.15745 c 0,0 -0.422065,-1.33867 0.916175,-2.75947 0.836968,-0.88846 0.797113,-0.98258 0.797113,-0.98258 0,0 0.43535,1.09828 -0.358704,2.05807 a 181.10995,212.486 0 0 1 -1.195159,1.43758 z m -0.39856,1.58985 c 0,0 0.421552,-1.33866 -0.916683,-2.75887 -0.836973,-0.88845 -0.797118,-0.98256 -0.797118,-0.98256 0,0 -0.435345,1.09827 0.359212,2.05806 0.986178,1.19239 1.195678,1.43758 1.195678,1.43758 z"
       style="clip-rule:evenodd;fill-rule:evenodd;stroke-width:0.5534662" />
    <path
       id="path3761"
       d="m 12.845812,221.29342 c 0,0 -0.422065,-1.33868 0.916175,-2.75947 0.836968,-0.88846 0.797113,-0.98197 0.797113,-0.98197 0,0 0.43535,1.09766 -0.358704,2.05746 a 198.95156,233.41854 0 0 1 -1.195159,1.43819 z m -0.39856,1.59046 c 0,0 0.421552,-1.33868 -0.916683,-2.75947 -0.836973,-0.88846 -0.797118,-0.98198 -0.797118,-0.98198 0,0 -0.435345,1.09708 0.359212,2.05747 0.986178,1.19179 1.195678,1.43758 1.195678,1.43758 z m 83.127482,0.95499 c 0,0 0.422068,1.33867 -0.916167,2.75948 -0.837491,0.88784 -0.797627,0.98197 -0.797627,0.98197 0,0 -0.435347,-1.09768 0.358185,-2.05807 0.987203,-1.19179 1.196696,-1.43759 1.196696,-1.43759 z m 0,-3.27084 c 0,0 0.422068,1.33868 -0.916167,2.75947 -0.837491,0.88905 -0.797627,0.98197 -0.797627,0.98197 0,0 -0.435347,-1.09767 0.358185,-2.05746 0.987203,-1.19179 1.196696,-1.43759 1.196696,-1.43759 z m 0.399069,1.68098 c 0,0 -0.42104,1.33867 0.917194,2.75948 0.836463,0.88845 0.796607,0.98196 0.796607,0.98196 0,0 0.435348,-1.09767 -0.358184,-2.05746 a 203.27388,238.48967 0 0 0 -1.195684,-1.43819 z m 0,-3.41532 c 0,0 -0.42104,1.33808 0.917194,2.75887 0.836463,0.88845 0.796607,0.98197 0.796607,0.98197 0,0 0.435348,-1.09827 -0.358184,-2.05745 -0.987204,-1.193 -1.195684,-1.4382 -1.195684,-1.4382 z m -0.399069,8.57277 c 0,0 0.422068,1.33868 -0.916167,2.75887 -0.837491,0.88905 -0.797627,0.98257 -0.797627,0.98257 0,0 -0.435347,-1.09827 0.358185,-2.05746 0.987203,-1.19299 1.196696,-1.43818 1.196696,-1.43818 z m 0.399069,-1.58986 c 0,0 -0.42104,1.33807 0.917194,2.75948 0.836463,0.88845 0.796607,0.98197 0.796607,0.98197 0,0 0.435348,-1.09828 -0.358184,-2.05807 a 203.27388,238.48967 0 0 0 -1.195684,-1.43819 z m -0.399069,5.15685 c 0,0 0.422068,1.33867 -0.916167,2.75948 -0.837491,0.88785 -0.797627,0.98196 -0.797627,0.98196 0,0 -0.435347,-1.09766 0.358185,-2.05806 0.987203,-1.19179 1.196696,-1.43758 1.196696,-1.43758 z m 0.399069,-1.59045 c 0,0 -0.42104,1.33867 0.917194,2.75947 0.836463,0.88845 0.796607,0.98256 0.796607,0.98256 0,0 0.435348,-1.09827 -0.358184,-2.05746 -0.987204,-1.19299 -1.195684,-1.43818 -1.195684,-1.43818 z m -0.399069,5.15744 c 0,0 0.422068,1.33867 -0.916167,2.75948 -0.837491,0.88844 -0.797627,0.98257 -0.797627,0.98257 0,0 -0.435347,-1.09828 0.358185,-2.05806 0.987203,-1.1924 1.196696,-1.43759 1.196696,-1.43759 z m 0.399069,-1.58986 c 0,0 -0.42104,1.33867 0.917194,2.75948 0.836463,0.88845 0.796607,0.98258 0.796607,0.98258 0,0 0.435348,-1.09768 -0.358184,-2.05807 a 203.27388,238.48967 0 0 0 -1.195684,-1.43819 z m -0.399069,5.15686 c 0,0 0.422068,1.33867 -0.916167,2.75947 -0.837491,0.88845 -0.797627,0.98257 -0.797627,0.98257 0,0 -0.435347,-1.09827 0.358185,-2.05806 0.987203,-1.1924 1.196696,-1.43759 1.196696,-1.43759 z m 0.399069,-1.58926 c 0,0 -0.42104,1.33807 0.917194,2.75887 0.836463,0.88845 0.796607,0.98197 0.796607,0.98197 0,0 0.435348,-1.09827 -0.358184,-2.05746 -0.987204,-1.193 -1.195684,-1.43819 -1.195684,-1.43819 z m -0.399069,5.15625 c 0,0 0.422068,1.33867 -0.916167,2.75947 -0.837491,0.88785 -0.797627,0.98198 -0.797627,0.98198 0,0 -0.435347,-1.09708 0.358185,-2.05748 0.987203,-1.19179 1.196696,-1.43758 1.196696,-1.43758 z m 0.399069,-1.58926 c 0,0 -0.42104,1.33807 0.917194,2.75887 0.836463,0.88845 0.796607,0.98257 0.796607,0.98257 0,0 0.435348,-1.09767 -0.358184,-2.05806 a 203.27388,238.48967 0 0 0 -1.195684,-1.43819 z m -0.399069,5.15745 c 0,0 0.422068,1.33807 -0.916167,2.75887 -0.837491,0.88786 -0.797627,0.98258 -0.797627,0.98258 0,0 -0.435347,-1.09828 0.358185,-2.05807 0.987203,-1.1924 1.196696,-1.43759 1.196696,-1.43759 z m 0.399069,-1.59046 c 0,0 -0.42104,1.33808 0.917194,2.75947 0.836463,0.88786 0.796607,0.98197 0.796607,0.98197 0,0 0.435348,-1.09827 -0.358184,-2.05806 -0.987204,-1.19239 -1.195684,-1.43759 -1.195684,-1.43759 z m -0.399069,5.15685 c 0,0 0.422068,1.33807 -0.916167,2.75948 -0.837491,0.88844 -0.797627,0.98197 -0.797627,0.98197 0,0 -0.435347,-1.09768 0.358185,-2.05747 0.987203,-1.19239 1.196696,-1.43759 1.196696,-1.43759 z m 0.399069,-1.58986 c 0,0 -0.42104,1.33807 0.917194,2.75887 0.836463,0.88846 0.796607,0.98258 0.796607,0.98258 0,0 0.435348,-1.09768 -0.358184,-2.05807 -0.987204,-1.1918 -1.195684,-1.43758 -1.195684,-1.43758 z m -0.399069,5.15746 c 0,0 0.422068,1.33806 -0.916167,2.75887 -0.837491,0.88845 -0.797627,0.98257 -0.797627,0.98257 0,0 -0.435347,-1.09767 0.358185,-2.05806 0.987203,-1.1924 1.196696,-1.4376 1.196696,-1.4376 z m 0.399069,-1.58986 c 0,0 -0.42104,1.33806 0.917194,2.75946 0.836463,0.88786 0.796607,0.98198 0.796607,0.98198 0,0 0.435348,-1.09767 -0.358184,-2.05806 -0.987204,-1.1918 -1.195684,-1.4376 -1.195684,-1.4376 z m -0.399069,5.15624 c 0,0 0.422068,1.33867 -0.916167,2.75948 -0.837491,0.88845 -0.797627,0.98257 -0.797627,0.98257 0,0 -0.435347,-1.09828 0.358185,-2.05807 0.987203,-1.19239 1.196696,-1.43758 1.196696,-1.43758 z m 0.399069,-1.58925 c 0,0 -0.42104,1.33867 0.917194,2.75887 0.836463,0.88905 0.796607,0.98257 0.796607,0.98257 0,0 0.435348,-1.09828 -0.358184,-2.05807 -0.987204,-1.19239 -1.195684,-1.43758 -1.195684,-1.43758 z m -0.399069,5.15625 c 0,0 0.422068,1.33867 -0.916167,2.75947 -0.837491,0.88845 -0.797627,0.98197 -0.797627,0.98197 0,0 -0.435347,-1.09767 0.358185,-2.05747 0.987203,-1.19179 1.196696,-1.43758 1.196696,-1.43758 z m 0.399069,-1.58926 c 0,0 -0.42104,1.33807 0.917194,2.75947 0.836463,0.88786 0.796607,0.98197 0.796607,0.98197 0,0 0.435348,-1.09767 -0.358184,-2.05807 a 188.1818,220.78299 0 0 0 -1.195684,-1.43698 z m -0.399069,5.15684 c 0,0 0.422068,1.33808 -0.916167,2.75948 -0.837491,0.88785 -0.797627,0.98197 -0.797627,0.98197 0,0 -0.435347,-1.09767 0.358185,-2.05806 0.987203,-1.1918 1.196696,-1.43758 1.196696,-1.43758 z m 0.399069,-1.58985 c 0,0 -0.42104,1.33867 0.917194,2.75948 0.836463,0.88844 0.796607,0.98197 0.796607,0.98197 0,0 0.435348,-1.09768 -0.358184,-2.05807 a 231.24294,271.30418 0 0 0 -1.195684,-1.43819 z m 0,3.56699 c 0,0 -0.42104,1.33866 0.917194,2.75947 0.836463,0.88786 0.796607,0.98197 0.796607,0.98197 0,0 0.435348,-1.09767 -0.358184,-2.05746 -0.987204,-1.19299 -1.195684,-1.43819 -1.195684,-1.43819 z m -24.885869,-43.84523 -38.808835,45.53161 0.669376,0.0599 38.850733,-45.58016 z m 2.72246,0 -38.807302,45.53161 0.668863,0.0599 38.850736,-45.58016 z"
       style="clip-rule:evenodd;fill-rule:evenodd;stroke-width:0.5534662" />
    <path
       id="path3763"
       stroke-miterlimit="2.613"
       d="m 97.466864,269.66002 a 1.7756277,2.083243 0 1 1 -3.55125,5.3e-4 1.7756277,2.083243 0 0 1 3.55125,-5.3e-4 z"
       style="clip-rule:evenodd;fill:#ffffff;fill-rule:evenodd;stroke:#000000;stroke-width:0.52468598;stroke-miterlimit:2.61299992" />
    <path
       id="path3765"
       d="m 96.507774,269.66002 a 0.81679046,0.95829396 0 1 1 -1.63358,0.002 0.81679046,0.95829396 0 0 1 1.63358,-0.002 z"
       style="clip-rule:evenodd;fill-rule:evenodd;stroke-width:0.5534662" />
    <path
       id="path3767"
       stroke-miterlimit="2.613"
       d="m 10.757977,269.77692 a 1.7761405,2.0838446 0 1 1 3.552281,0 1.7761405,2.0838446 0 0 1 -3.552281,0 z"
       style="clip-rule:evenodd;fill:#ffffff;fill-rule:evenodd;stroke:#000000;stroke-width:0.52468598;stroke-miterlimit:2.61299992" />
    <path
       id="path3769"
       d="m 11.716564,269.77692 a 0.81755525,0.959191 0 1 1 1.6346,-5.2e-4 0.81755525,0.959191 0 0 1 -1.6346,5.2e-4 z"
       style="clip-rule:evenodd;fill-rule:evenodd;stroke-width:0.5534662" />
    <path
       id="path3771"
       stroke-miterlimit="2.613"
       d="m 10.757977,218.3547 a 1.7756299,2.0832454 0 1 1 3.55126,0 1.7756299,2.0832454 0 0 1 -3.55126,0 z"
       style="clip-rule:evenodd;fill:#ffffff;fill-rule:evenodd;stroke:#000000;stroke-width:0.52468598;stroke-miterlimit:2.61299992" />
    <path
       id="path3773"
       d="m 11.716564,218.3547 a 0.81755525,0.959191 0 1 1 1.634087,0 0.81755525,0.959191 0 0 1 -1.634087,0 z"
       style="clip-rule:evenodd;fill-rule:evenodd;stroke-width:0.5534662" />
    <path
       id="path3775"
       stroke-miterlimit="2.613"
       d="m 97.466864,218.2384 a 1.776139,2.0838428 0 1 1 -3.552278,-8e-4 1.776139,2.0838428 0 0 1 3.552278,8e-4 z"
       style="clip-rule:evenodd;fill:#ffffff;fill-rule:evenodd;stroke:#000000;stroke-width:0.52468598;stroke-miterlimit:2.61299992" />
    <path
       id="path3777"
       d="m 96.507774,218.2384 a 0.8167902,0.95829347 0 1 1 -1.63358,5.2e-4 0.8167902,0.95829347 0 0 1 1.63358,-5.2e-4 z"
       style="clip-rule:evenodd;fill-rule:evenodd;stroke-width:0.5534662" />
    <path
       id="path3779"
       stroke-miterlimit="2.613"
       d="m 58.176694,240.82794 a 4.2640616,5.0027808 0 1 0 0.755729,3.58438 m 0,0 6.402989,2.15818 m 0,-5.2e-4 c -1.098591,5.69699 -5.439806,9.9516 -10.628729,9.9516 -6.017717,0 -10.896481,-5.72457 -10.896481,-12.78482 0,-7.06084 4.878764,-12.78481 10.896481,-12.78481 4.767369,0 8.82142,3.59277 10.299153,8.59674 m 0,-5.1e-4 -6.829142,1.27991"
       style="fill:none;stroke:#ffffff;stroke-width:2.09819055;stroke-miterlimit:2.61299992" />
    <path
       id="path3781"
       stroke-miterlimit="2.613"
       d="m 39.209415,243.73668 c 0,7.06025 -4.878765,12.78483 -10.896993,12.78483 -6.018227,0 -10.896988,-5.72458 -10.896988,-12.78483 0,-7.06083 4.878761,-12.78481 10.896988,-12.78481 6.018228,0 10.896993,5.72398 10.896993,12.78481 z"
       style="clip-rule:evenodd;fill-rule:evenodd;stroke:#000000;stroke-width:0.52468598;stroke-miterlimit:2.61299992" />
    <path
       id="path3783"
       stroke-miterlimit="2.613"
       d="m 32.576486,243.73668 a 4.2640616,5.0027808 0 1 1 -8.528121,-7.9e-4 4.2640616,5.0027808 0 0 1 8.528121,7.9e-4 z"
       style="clip-rule:evenodd;fill:#ffffff;fill-rule:evenodd;stroke:#000000;stroke-width:0.52468598;stroke-miterlimit:2.61299992" />
    <path
       id="path3785"
       stroke-miterlimit="2.613"
       d="m 58.176694,240.82794 a 4.2640616,5.0027808 0 1 0 0.755729,3.58438 l 6.402989,2.15818 c -1.098591,5.697 -5.439806,9.95161 -10.628729,9.95161 -6.017717,0 -10.896481,-5.72457 -10.896481,-12.78482 0,-7.06085 4.878764,-12.78482 10.896481,-12.78482 4.767369,0 8.82142,3.59277 10.299153,8.59675 z m 27.738118,0.95499 c 1.663723,-0.85128 2.839471,-3.12036 2.839471,-5.38585 a 4.7060526,5.5213437 0 0 0 -4.707586,-5.52194 l -0.523747,-0.018 H 70.044021 v 25.00072 h 14.931622 l -0.152779,-0.0126 c 3.209416,0 5.811284,-3.05263 5.811284,-6.81805 0,-3.33739 -2.019874,-6.26651 -4.719336,-6.85281 z"
       style="clip-rule:evenodd;fill-rule:evenodd;stroke:#000000;stroke-width:0.52468598;stroke-miterlimit:2.61299992" />
    <path
       id="path3787"
       stroke-miterlimit="2.613"
       d="m 81.464755,236.42046 c 0.849234,0 1.539047,0.8255 1.539047,1.82366 a 1.5390478,1.8056771 0 0 1 -1.539047,1.80508 v -0.006 h -4.359103 v -3.62274 z m 1.068952,9.45103 c 0.913109,0 1.655552,0.88785 1.655552,1.96094 0,1.0731 -0.742443,1.94237 -1.655552,1.94237 v -0.006 H 77.04587 v -3.89671 z"
       style="clip-rule:evenodd;fill:#ffffff;fill-rule:evenodd;stroke:#000000;stroke-width:0.52468598;stroke-miterlimit:2.61299992" />
  </g>
</svg>
