<svg width="87" height="53" viewBox="0 0 87 53" fill="none" xmlns="http://www.w3.org/2000/svg">
<path d="M3.06594 52.8288H0.000156604V20.4861C0.000475956 15.8337 1.89258 11.3199 5.36547 7.68628C8.8383 4.05269 13.6854 1.51547 19.1102 0.491579C19.2252 0.470206 19.3274 0.448838 19.4104 0.438151C19.4743 0.427465 19.5381 0.416777 19.602 0.411433V0.406093H19.6084C19.6148 0.411437 19.6148 0.406093 19.6148 0.406093H19.6276C19.6435 0.399412 19.6609 0.395759 19.6787 0.395404C19.6811 0.393384 19.6842 0.39186 19.6875 0.390937C19.6909 0.390013 19.6943 0.389715 19.6978 0.390064C20.6517 0.233351 21.6156 0.122735 22.5848 0.0587764C23.2107 0.0213734 23.8494 0 24.4881 0C24.7883 0 25.0885 -6.51895e-07 25.3823 0.0160291C28.0671 0.120727 30.691 0.721057 33.0659 1.77397C31.4666 2.31569 29.9131 2.94764 28.4161 3.66548C23.1491 6.17179 18.642 9.65821 15.2435 13.8551C14.7051 14.3748 14.2341 14.9408 13.8383 15.5435C13.832 15.5489 13.832 15.5489 13.832 15.5542C13.5785 15.9329 13.3566 16.3256 13.1677 16.7298C12.5929 17.9235 12.3001 19.1991 12.3054 20.4861L12.3054 42.5324L18.3348 42.5324C19.2966 42.5336 20.2551 42.4386 21.1898 42.2492H21.209C22.5437 41.9753 23.8134 41.5146 24.9646 40.8866C25.5759 40.5562 26.1489 40.1788 26.6763 39.7592C23.3468 43.6638 19.0426 46.9164 14.0619 49.2916C10.631 50.9281 6.92359 52.1207 3.06594 52.8288Z" fill="url(#paint0_linear_41_83)"/>
<path d="M18.3374 52.829H3.06593C6.92448 52.1212 10.6327 50.9285 14.0644 49.2918C19.0452 46.9166 23.3494 43.664 26.6789 39.7594C27.8942 38.8107 28.8625 37.6623 29.5229 36.3862C30.1835 35.11 30.522 33.7336 30.5175 32.343L30.5175 15.3354C30.5164 13.9984 29.8807 12.7164 28.75 11.7715C27.6193 10.8266 26.0863 10.2961 24.4881 10.2967C22.7315 10.2949 20.9955 10.6122 19.3998 11.2266C17.8041 11.841 16.3869 12.7379 15.246 13.8553C18.6438 9.65868 23.15 6.17226 28.4161 3.66568C29.9131 2.94785 31.4666 2.31589 33.0659 1.77417C36.0136 3.07784 38.4802 5.02966 40.1999 7.41937C41.9197 9.80904 42.8274 12.546 42.8253 15.3354V32.343C42.826 36.8932 41.0159 41.3141 37.6806 44.9083C34.3452 48.5026 29.6745 51.0656 24.4051 52.1932C24.3849 52.2014 24.3634 52.2068 24.3412 52.2092C22.3782 52.6225 20.3616 52.8307 18.3374 52.829Z" fill="url(#paint1_linear_41_83)"/>
<g style="mix-blend-mode:multiply" opacity="0.15">
<g style="mix-blend-mode:multiply" opacity="0.15">
<path d="M3.06578 52.829L-2.7652e-06 52.829C-2.7652e-06 52.829 7.90078 52.3855 14.9265 42.8745C15.0096 42.7623 15.0926 42.6501 15.1756 42.5325H18.3372C19.299 42.5338 20.2575 42.4387 21.1922 42.2494H21.2114C22.5461 41.9755 23.8158 41.5148 24.967 40.8868C25.5783 40.5564 26.1513 40.179 26.6787 39.7594C23.3492 43.664 19.045 46.9165 14.0643 49.2918C10.6325 50.9285 6.92433 52.1211 3.06578 52.829Z" fill="black"/>
</g>
</g>
<g style="mix-blend-mode:multiply" opacity="0.15">
<g style="mix-blend-mode:multiply" opacity="0.15">
<path d="M13.1703 16.7298C13.1703 16.7298 13.3235 9.0782 22.5848 0.0587764C23.2107 0.0213734 23.8494 0 24.4881 0C24.7883 0 25.0885 -6.51895e-07 25.3823 0.0160291C28.0671 0.120727 30.691 0.721057 33.0659 1.77397C31.4666 2.31569 29.9131 2.94764 28.4161 3.66548C23.1491 6.17179 18.642 9.65821 15.2435 13.8551C14.7051 14.3748 14.2341 14.9408 13.8383 15.5435C13.832 15.5489 13.832 15.5489 13.832 15.5542C13.5794 15.9329 13.3583 16.3257 13.1703 16.7298Z" fill="black"/>
</g>
</g>
<g style="mix-blend-mode:multiply" opacity="0.3">
<g style="mix-blend-mode:multiply" opacity="0.3">
<path d="M19.6147 0.407176C19.6289 0.401347 19.644 0.397416 19.6594 0.395508C19.653 0.401341 19.6403 0.401343 19.6275 0.407176H19.6147Z" fill="black"/>
</g>
</g>
<g style="mix-blend-mode:multiply" opacity="0.3">
<g style="mix-blend-mode:multiply" opacity="0.3">
<path d="M0.000153984 50.2907L0.000153984 20.486C0.000473337 15.8337 1.89258 11.3199 5.36547 7.68622C8.8383 4.05261 13.6854 1.51538 19.1102 0.491492C19.2252 0.470119 19.3274 0.44875 19.4104 0.438064C19.4734 0.424269 19.5374 0.413566 19.602 0.406006H19.6084L19.602 0.411346C19.4807 0.443406 19.2699 0.49684 18.9633 0.571644C18.2571 0.72545 17.5619 0.912768 16.8811 1.13269C16.4404 1.2823 15.9422 1.40519 15.4313 1.61358C14.9203 1.82197 14.3646 2.04104 13.777 2.28149C13.215 2.55934 12.621 2.85322 11.9886 3.16847C11.401 3.52647 10.7432 3.86309 10.1236 4.28521C9.46711 4.71285 8.84022 5.17133 8.24584 5.65845C7.93926 5.90958 7.62629 6.16606 7.30694 6.42254C7.01952 6.70573 6.71933 6.98892 6.41914 7.27746C6.27224 7.42173 6.11256 7.56065 5.97205 7.71026C5.83792 7.87056 5.6974 8.02552 5.56328 8.18047C5.28863 8.50107 4.99483 8.81098 4.73296 9.1476C4.20009 9.83026 3.7118 10.5366 3.27033 11.2635C2.81518 12.0129 2.4121 12.7836 2.06317 13.5718C1.73424 14.3876 1.45494 15.2169 1.22647 16.0564C1.00299 16.9026 0.838775 17.759 0.734666 18.6212L0.664408 19.9784C0.651634 20.1921 0.632472 20.4539 0.638859 20.6303V21.3089C0.632472 23.1202 0.626084 24.9316 0.61331 26.7162C0.600536 28.5009 0.581379 30.2535 0.562218 31.9526C0.517508 35.3456 0.447247 38.5195 0.364216 41.2339C0.293958 43.9536 0.178993 46.2138 0.121509 47.8007C0.0423101 49.3877 0.000153984 50.2907 0.000153984 50.2907Z" fill="black"/>
</g>
</g>
<g style="mix-blend-mode:overlay" opacity="0.6">
<g style="mix-blend-mode:overlay" opacity="0.6">
<path d="M11.8162 42.9761L11.797 42.5326C11.7523 41.6509 11.7459 40.7746 11.7204 39.893C11.6948 39.0114 11.6885 38.1351 11.6821 37.2588C11.6757 36.3825 11.6629 35.5008 11.6757 34.6192C11.6885 33.7376 11.6885 32.8613 11.7076 31.985C11.7459 30.227 11.8034 28.4691 11.8992 26.7112C11.995 24.9532 12.11 23.1953 12.308 21.4374L12.308 42.5326H18.3374C19.2991 42.5339 20.2576 42.4388 21.1924 42.2494H21.2115C20.4982 42.4522 19.762 42.5936 19.0144 42.6715C18.2543 42.7463 17.5198 42.7623 16.7725 42.8051C16.1594 42.8318 15.5398 42.8585 14.9267 42.8745C14.0517 42.9119 13.183 42.9387 12.308 42.96L11.8162 42.9761Z" fill="white"/>
</g>
</g>
<g style="mix-blend-mode:screen" opacity="0.4">
<g style="mix-blend-mode:screen" opacity="0.4">
<path d="M24.4051 52.193C24.6158 52.1235 25.2673 51.9205 26.2573 51.6266C26.8513 51.3915 27.5858 51.1564 28.3778 50.8037C28.7738 50.6221 29.1954 50.4297 29.6361 50.2267C30.0768 50.0236 30.5047 49.7618 30.971 49.5213C31.4529 49.263 31.9177 48.983 32.3633 48.6824C32.5997 48.5328 32.836 48.3779 33.0787 48.2229C33.3086 48.0519 33.5385 47.881 33.7749 47.71C34.0112 47.539 34.2475 47.3573 34.4902 47.181C34.7138 46.9833 34.9373 46.7856 35.1672 46.5879C35.3972 46.3902 35.6271 46.1925 35.857 45.9894C36.0742 45.7757 36.2914 45.5566 36.5085 45.3376C36.7257 45.1185 36.9556 44.8994 37.16 44.6697C37.3644 44.4399 37.5624 44.1941 37.7668 43.9537C38.1883 43.4835 38.5332 42.9705 38.9037 42.4575C39.6318 41.4136 40.2473 40.3174 40.7432 39.1821C40.9922 38.6104 41.1838 38.0226 41.4074 37.4509C41.5671 36.8632 41.7331 36.2754 41.8737 35.6876C41.9567 35.0999 42.078 34.5335 42.1483 33.9404C42.1866 33.3526 42.2441 32.7275 42.2633 32.1878C42.308 29.8475 42.3782 27.6674 42.4613 25.7973C42.5315 23.9271 42.6465 22.3722 42.704 21.2822C42.7614 20.1922 42.8253 19.567 42.8253 19.567V32.3428C42.826 36.893 41.0159 41.3139 37.6806 44.9081C34.3452 48.5024 29.6745 51.0654 24.4051 52.193Z" fill="white"/>
</g>
</g>
<g style="mix-blend-mode:multiply" opacity="0.3">
<g style="mix-blend-mode:multiply" opacity="0.3">
<path d="M1.52666 53L2.35698 52.829L3.02762 52.6901C5.36253 52.2208 7.6399 51.5696 9.82983 50.7452C10.9284 50.3444 11.995 49.8956 13.0425 49.4147C13.5726 49.1742 14.0772 48.9178 14.5946 48.656C15.1119 48.3941 15.5973 48.127 16.0891 47.8384C18.0646 46.715 19.9119 45.4415 21.6075 44.034C22.457 43.3394 23.2554 42.5967 24.0282 41.8433C24.3476 41.528 24.6606 41.2128 24.9671 40.8868C25.5784 40.5564 26.1515 40.179 26.6789 39.7594C27.8942 38.8107 28.8625 37.6623 29.523 36.3862C30.1834 35.11 30.522 33.7336 30.5175 32.343L30.5175 15.3354C30.5165 13.9984 29.8807 12.7164 28.75 11.7715C27.6193 10.8266 26.0863 10.2961 24.4881 10.2967C22.7315 10.2949 20.9954 10.6122 19.3997 11.2266C17.8041 11.841 16.3869 12.7379 15.246 13.8553C14.7077 14.375 14.2367 14.941 13.8409 15.5438C14.0871 14.8777 14.4372 14.2418 14.882 13.6522C16.0064 12.3082 17.2444 11.0333 18.5865 9.83715C19.2571 9.24404 19.9533 8.66163 20.675 8.11127C21.3968 7.56092 22.1504 7.03728 22.9169 6.53501C24.4576 5.53502 26.0843 4.63132 27.7838 3.83132C29.4759 3.02847 31.2422 2.34056 33.0659 1.77417C31.2936 2.42766 29.5797 3.18657 27.9371 4.04506C26.2967 4.89453 24.734 5.84466 23.2618 6.88767C22.5209 7.40596 21.8119 7.95632 21.1221 8.51202C20.4323 9.06772 19.7681 9.65013 19.123 10.2486C18.7142 10.628 18.3246 11.0234 17.935 11.4188C18.6424 11.0471 19.3937 10.7374 20.1769 10.4944C21.202 10.1662 22.2768 9.9594 23.3704 9.87989C24.4874 9.75967 25.6224 9.85099 26.6916 10.1471C27.7794 10.4666 28.7481 11.0191 29.5012 11.7494C30.2543 12.4797 30.7654 13.3624 30.9837 14.3095C31.0403 14.5455 31.0745 14.7849 31.0859 15.0255C31.0923 15.143 31.1051 15.2178 31.1115 15.3781V15.7041L31.1179 17.0185L31.1306 19.6474L31.1562 24.8998L31.1306 30.1522C31.1179 31.0339 31.1306 31.8834 31.1051 32.7971C31.0554 33.7155 30.8621 34.6245 30.5303 35.5008C29.874 37.2445 28.6929 38.8177 27.1004 40.0693C26.3914 40.8868 25.6442 41.6723 24.8522 42.4364C24.0509 43.2082 23.2024 43.9448 22.3101 44.6432C20.5315 46.0452 18.6031 47.3079 16.549 48.4155C16.0444 48.6934 15.5079 48.9605 14.9906 49.217C14.4732 49.4735 13.9303 49.7246 13.3874 49.9544C12.308 50.4246 11.2094 50.8574 10.0789 51.2421C8.25184 51.8499 6.37309 52.3429 4.45832 52.7168C6.30418 52.7489 8.14365 52.7863 9.98951 52.829C7.68378 52.8878 5.37167 52.9359 3.06594 52.9733L1.52666 53Z" fill="black"/>
</g>
</g>
<path d="M85.0553 0.00292969V14.6498H64.301C64.0505 14.6465 63.8019 14.7018 63.5695 14.8126C63.3371 14.9233 63.1256 15.0873 62.9472 15.295C62.8021 15.4646 62.6837 15.6633 62.5974 15.8819C62.7904 12.1717 63.9812 8.63098 65.9964 5.77505C68.0117 2.91911 70.7462 0.896983 73.802 0.00292969H85.0553Z" fill="url(#paint2_linear_41_83)"/>
<path d="M74.1812 36.9431C74.01 40.672 72.8317 44.238 70.8189 47.1187C68.8061 49.9993 66.0648 52.0429 62.9967 52.9501H52.26V38.3063H72.4186C72.6751 38.3103 72.9297 38.2529 73.1669 38.1377C73.3938 38.0284 73.5997 37.8664 73.7724 37.6611C73.946 37.4546 74.0848 37.2109 74.1812 36.9431Z" fill="url(#paint3_linear_41_83)"/>
<path d="M86.7246 36.0628C86.7335 38.3217 86.3514 40.5589 85.6018 42.6372C85.4493 43.0556 85.2819 43.4678 85.1002 43.8694C85.095 43.8862 85.0898 43.8923 85.0898 43.9038C85.0881 43.9125 85.0847 43.9206 85.0801 43.9276C83.5381 47.3694 81.0404 50.0803 78.0062 51.6054C76.2421 52.5035 74.3395 52.9605 72.4185 52.9479H63.0011L63.1095 52.9134C66.1521 51.9836 68.865 49.9345 70.8555 47.0629C72.846 44.1913 74.0107 40.6462 74.1811 36.9409V36.9348C74.3611 36.3818 74.3646 35.7703 74.1908 35.2146C74.1863 35.2031 74.1811 35.1854 74.1759 35.174C74.0823 34.9068 73.9451 34.6639 73.7722 34.459C73.5951 34.2496 73.3838 34.0849 73.151 33.9749C72.9183 33.8649 72.669 33.8119 72.4185 33.8192H64.301C63.8974 33.8192 63.4937 33.8024 63.0946 33.7556C63.0803 33.7556 63.0654 33.7495 63.0459 33.7495C61.5548 33.6101 60.0938 33.1782 58.7231 32.4714C55.3123 30.7378 52.5963 27.5226 51.1371 23.4909C50.945 22.9715 50.7773 22.4399 50.6348 21.8987C50.2089 20.2781 49.9949 18.5903 50.0001 16.8935C49.9916 14.6295 50.3786 12.3877 51.1371 10.3084C52.6048 6.289 55.3188 3.08455 58.7231 1.35168C59.7167 0.838045 60.7601 0.471051 61.8297 0.259005C61.8693 0.246745 61.8985 0.241377 61.918 0.235247C61.9278 0.232307 61.9378 0.230508 61.9478 0.229881C62.7254 0.076343 63.5126 -0.000549503 64.301 2.95579e-06H73.8021C70.7462 0.894058 68.0116 2.91618 65.9964 5.77212C63.9812 8.62806 62.7905 12.1687 62.5975 15.879C62.5767 15.9221 62.5587 15.9669 62.5436 16.0131C62.4464 16.2912 62.3978 16.5896 62.4008 16.8905C62.398 17.2055 62.4481 17.5179 62.5481 17.81C62.5586 17.8424 62.5718 17.8735 62.5877 17.9027C62.6726 18.1355 62.7946 18.3467 62.9473 18.5249C63.125 18.7337 63.3363 18.8984 63.5689 19.0092C63.8014 19.1201 64.0503 19.1747 64.301 19.1701H72.4185C74.3354 19.158 76.2344 19.607 77.9997 20.4895C81.432 22.1931 84.1622 25.4168 85.6051 29.4692C85.7958 29.9945 85.9619 30.5316 86.1029 31.0783C86.5198 32.6938 86.7293 34.374 86.7246 36.0628Z" fill="url(#paint4_linear_41_83)"/>
<g style="mix-blend-mode:multiply" opacity="0.16">
<g style="mix-blend-mode:multiply" opacity="0.16">
<path d="M74.1808 36.9431C74.0096 40.672 72.8313 44.238 70.8185 47.1187C68.8058 49.9993 66.0644 52.0429 62.9964 52.9501H60.0033C62.515 51.5545 64.7323 49.5167 66.4945 46.9844C68.2568 44.452 69.5199 41.4885 70.1922 38.3086H72.417C72.6735 38.3126 72.928 38.2552 73.1652 38.14C73.3921 38.0307 73.5981 37.8687 73.7707 37.6634C73.9451 37.4563 74.0843 37.2118 74.1808 36.9431Z" fill="black"/>
</g>
</g>
<g style="mix-blend-mode:multiply" opacity="0.16">
<g style="mix-blend-mode:multiply" opacity="0.16">
<path d="M76.4998 0.00292969C73.7281 2.43807 68.1015 8.05852 66.6835 14.6498H64.301C64.0505 14.6465 63.8019 14.7018 63.5695 14.8126C63.3371 14.9233 63.1256 15.0873 62.9472 15.295C62.8021 15.4646 62.6837 15.6633 62.5974 15.8819C62.7904 12.1717 63.9812 8.63098 65.9964 5.77505C68.0117 2.91911 70.7462 0.896983 73.802 0.00292969H76.4998Z" fill="black"/>
</g>
</g>
<g style="mix-blend-mode:multiply" opacity="0.25">
<g style="mix-blend-mode:multiply" opacity="0.25">
<path d="M85.0556 4.38513V14.6529H67.7227C69.1647 14.4843 70.6119 14.3686 72.0546 14.2866C73.4973 14.2046 74.9445 14.1334 76.3865 14.1066C77.8338 14.0545 79.2764 14.0606 80.7237 14.043C82.0216 14.0606 83.3079 14.0606 84.6033 14.0951C84.6175 13.4269 84.6279 12.758 84.6519 12.0844C84.6766 11.2293 84.7013 10.3749 84.746 9.52055C84.8174 7.80875 84.9128 6.09387 85.0556 4.38513Z" fill="black"/>
</g>
</g>
<g style="mix-blend-mode:screen" opacity="0.7">
<g style="mix-blend-mode:screen" opacity="0.7">
<path d="M86.7245 36.0628C86.7334 38.3216 86.3514 40.5589 85.6018 42.6372C85.4493 43.0556 85.2818 43.4679 85.1001 43.8694C85.1494 43.7123 85.3117 43.2118 85.5544 42.4448C85.9304 41.1405 86.1765 39.789 86.2878 38.4175C86.3578 37.5091 86.3728 36.5959 86.3325 35.685C86.2831 34.6777 86.1646 33.6767 85.9782 32.6921C85.8816 32.1828 85.7616 31.6802 85.6187 31.1864C85.4512 30.6753 85.2838 30.1572 85.1163 29.64C84.7407 28.623 84.2788 27.6534 83.7379 26.746C83.211 25.8265 82.6017 24.9766 81.9208 24.2111C81.2648 23.4683 80.553 22.7973 79.7941 22.2066C79.0742 21.6547 78.3187 21.1707 77.5343 20.7593C76.8278 20.4003 76.0988 20.1067 75.3538 19.8811C74.2197 19.549 73.0601 19.3524 71.8927 19.2942C71.0361 19.2176 70.5487 19.1724 70.5487 19.1724H72.4145C74.3315 19.1603 76.2305 19.6092 77.9957 20.4918C81.428 22.1954 84.1583 25.4191 85.6011 29.4714C85.7918 29.9967 85.9579 30.5339 86.0989 31.0807C86.5169 32.6951 86.7278 34.3745 86.7245 36.0628Z" fill="white"/>
</g>
</g>
<g style="mix-blend-mode:multiply" opacity="0.25">
<g style="mix-blend-mode:multiply" opacity="0.25">
<path d="M61.4457 52.9478H52.26V41.8755C52.3729 42.7996 52.4417 43.7145 52.5157 44.6424C52.5748 45.5665 52.6293 46.4906 52.6637 47.4086C52.713 48.3327 52.7227 49.2575 52.7519 50.1816L52.7721 52.3432C53.3672 52.3547 53.9629 52.3547 54.5587 52.3724C55.3219 52.4076 56.0851 52.4191 56.8528 52.4773C58.3838 52.5647 59.9147 52.698 61.4457 52.9478Z" fill="black"/>
</g>
</g>
<g style="mix-blend-mode:screen" opacity="0.7">
<g style="mix-blend-mode:screen" opacity="0.7">
<path d="M63.0459 33.7494C61.5548 33.61 60.0938 33.178 58.7231 32.4713C55.3123 30.7378 52.5963 27.5226 51.1371 23.4909C50.945 22.9714 50.7773 22.4399 50.6348 21.8986C50.2089 20.2781 49.9949 18.5902 50.0001 16.8934C49.9916 14.6294 50.3786 12.3877 51.1371 10.3083C52.6048 6.2889 55.3188 3.08445 58.7231 1.35158C59.7167 0.837948 60.7601 0.470957 61.8297 0.258911C61.2932 0.411261 60.7639 0.597469 60.2443 0.816738C56.7191 2.3033 53.8025 5.31293 52.0827 9.23861C50.9454 11.8164 50.4101 14.7053 50.5317 17.6084C50.5698 19.0671 50.7837 20.5119 51.167 21.8994C51.2799 22.2534 51.3883 22.6081 51.4967 22.9568L51.5752 23.2181L51.5953 23.2824C51.5999 23.2933 51.6031 23.305 51.6051 23.3169L51.6544 23.4449L51.8413 23.9391C52.0899 24.5789 52.3743 25.1984 52.6927 25.7934C53.2964 26.9264 54.0084 27.9737 54.8149 28.9144C55.5469 29.7564 56.3482 30.51 57.207 31.1641C57.9402 31.7133 58.709 32.1932 59.5064 32.5993C60.1286 32.9117 60.7704 33.1663 61.4261 33.3609C61.9601 33.5225 62.5008 33.6522 63.0459 33.7494Z" fill="white"/>
</g>
</g>
<g style="mix-blend-mode:screen" opacity="0.7">
<g style="mix-blend-mode:screen" opacity="0.7">
<path d="M73.8021 0.00292969C70.7462 0.896983 68.0117 2.91911 65.9965 5.77505C63.9812 8.63098 62.7905 12.1717 62.5974 15.8819C62.5767 15.925 62.5586 15.9698 62.5436 16.016L62.5832 15.8704C62.5682 15.4107 62.5682 14.9463 62.5682 14.4812C62.5974 14.0169 62.6416 13.5518 62.6812 13.0805C62.7461 12.6208 62.8337 12.161 62.9077 11.7013C63.0063 11.2415 63.1393 10.8002 63.2523 10.3412C63.3821 9.89369 63.543 9.46306 63.7001 9.0217C63.8675 8.59183 64.0648 8.17882 64.242 7.75432C64.4483 7.34207 64.6748 6.95281 64.8909 6.54593C65.1272 6.16281 65.3731 5.78428 65.6197 5.41188C65.8852 5.05174 66.1662 4.70923 66.4368 4.35982C66.7321 4.03493 67.0209 3.70927 67.3279 3.39511L68.2877 2.52926C68.6226 2.26797 68.962 2.02352 69.3066 1.77373C69.6661 1.56454 70.0159 1.33774 70.3748 1.13392L71.4878 0.622818C71.8772 0.488725 72.2556 0.355397 72.6398 0.239693C73.0239 0.147743 73.4133 0.0726585 73.8021 0.00292969Z" fill="white"/>
</g>
</g>
<g style="mix-blend-mode:screen" opacity="0.7">
<g style="mix-blend-mode:screen" opacity="0.7">
<path d="M74.2701 36.9348C74.2746 37.4114 74.2746 37.8765 74.2649 38.347C74.2402 38.8182 74.1909 39.2833 74.1468 39.7538C74.078 40.2187 73.9993 40.6838 73.9105 41.1491C73.8119 41.6089 73.6841 42.0617 73.5705 42.5146C73.4407 42.9682 73.2707 43.3981 73.1162 43.8402C72.9494 44.2762 72.7573 44.6946 72.5698 45.1191C72.3679 45.5313 72.1421 45.9267 71.9253 46.3336C71.6891 46.7229 71.4425 47.0998 71.1965 47.4784C70.9311 47.8393 70.6501 48.1879 70.3794 48.5419C70.0842 48.8737 69.7954 49.1994 69.4884 49.5189L68.5279 50.3909C68.193 50.6524 67.8534 50.9078 67.509 51.1571L66.4408 51.8138L65.3233 52.3425L64.1759 52.7379C63.8806 52.8076 63.5918 52.8774 63.2997 52.9356L63.3646 52.9471L63.0246 52.9938C63.02 53 63.0096 53 63.0051 53L62.9999 52.9471L62.9954 52.895L63.1083 52.9126C66.1508 51.9828 68.8638 49.9337 70.8543 47.0621C72.8448 44.1905 74.0095 40.6454 74.1799 36.9401V36.934C74.2754 36.6574 74.3223 36.3607 74.3175 36.062C74.3532 36.3536 74.337 36.6509 74.2701 36.9348Z" fill="white"/>
</g>
</g>
<defs>
<linearGradient id="paint0_linear_41_83" x1="1.85183" y1="26.4144" x2="24.9318" y2="26.4144" gradientUnits="userSpaceOnUse">
<stop stop-color="#F55233"/>
<stop offset="1" stop-color="#A53826"/>
</linearGradient>
<linearGradient id="paint1_linear_41_83" x1="43.7" y1="27.3016" x2="14.7552" y2="27.3016" gradientUnits="userSpaceOnUse">
<stop stop-color="#FCC400"/>
<stop offset="0.162" stop-color="#FBC000"/>
<stop offset="0.307" stop-color="#FBB500"/>
<stop offset="0.446" stop-color="#FBA300"/>
<stop offset="0.581" stop-color="#FA8900"/>
<stop offset="0.712" stop-color="#FA6800"/>
<stop offset="0.842" stop-color="#F93F00"/>
<stop offset="0.967" stop-color="#F81000"/>
<stop offset="1" stop-color="#F80300"/>
</linearGradient>
<linearGradient id="paint2_linear_41_83" x1="85.0553" y1="7.94243" x2="63.5182" y2="7.94243" gradientUnits="userSpaceOnUse">
<stop stop-color="#EE0979"/>
<stop offset="0.322" stop-color="#F32555"/>
<stop offset="1" stop-color="#FF6A00"/>
</linearGradient>
<linearGradient id="paint3_linear_41_83" x1="51.4051" y1="44.9466" x2="72.0987" y2="44.9466" gradientUnits="userSpaceOnUse">
<stop stop-color="#EE0979"/>
<stop offset="0.322" stop-color="#F32555"/>
<stop offset="1" stop-color="#FF6A00"/>
</linearGradient>
<linearGradient id="paint4_linear_41_83" x1="68.3624" y1="-0.423585" x2="68.3624" y2="54.3777" gradientUnits="userSpaceOnUse">
<stop stop-color="#FCC400"/>
<stop offset="0.162" stop-color="#FBC000"/>
<stop offset="0.307" stop-color="#FBB500"/>
<stop offset="0.446" stop-color="#FBA300"/>
<stop offset="0.581" stop-color="#FA8900"/>
<stop offset="0.712" stop-color="#FA6800"/>
<stop offset="0.842" stop-color="#F93F00"/>
<stop offset="0.967" stop-color="#F81000"/>
<stop offset="1" stop-color="#F80300"/>
</linearGradient>
</defs>
</svg>
